<?xml version="1.0" encoding="utf-8"?>
<!-- Generator: Adobe Illustrator 25.4.1, SVG Export Plug-In . SVG Version: 6.00 Build 0)  --><svg height="1080px" style="enable-background:new 0 0 1920 1080;" version="1.1" viewBox="156.20 284.90 1495.24 582.20" width="1920px" x="0px" xml:space="preserve" xmlns="http://www.w3.org/2000/svg" xmlns:xlink="http://www.w3.org/1999/xlink" y="0px">
<style type="text/css">
	.st0{fill:#FFFFFF;}
	.st1{fill:#FFCE1D;}
	.st2{fill:#FF9400;}
	.st3{fill:#606063;}
</style>
<g id="Layer_7">
<g>
<path class="st0" d="M1605.6,579.5c7.5-3.7,15.8-9,22.7-16.6c13.8-15.1,18.7-35.2,14-56.5l-0.1-0.4c0,0-0.2-0.8-0.3-1.2l0,0    c0,0,0,0,0-0.1c0,0,0-0.1,0-0.1l0,0c-0.1-0.4-0.3-1.1-0.3-1.1l-0.1-0.4c-6.6-20.9-20.9-35.8-40.3-42c-13.1-4.2-26.1-3.7-35.7-2.2    c4.3-7.1,8.4-15.9,10.1-26c3.5-20.1-3-39.7-18.4-55.2l-0.3-0.3c0,0-0.7-0.7-0.9-0.9l-0.1-0.1c-0.2-0.2-0.9-0.8-0.9-0.8l-0.3-0.3    c-16.7-14.1-36.8-19-56.5-13.9c-18.4,4.8-31.9,17.1-38.3,24c-1.1,1.2-2.2,2.4-3.3,3.7c1.4-9.5,2.1-18.1,2.1-25.1    c0-9.4-1.7-27.6-11.9-43.6c-11-17.2-29.1-27.2-51-28.1l-0.4,0c0,0-1.1,0-1.3,0c-0.2,0-1.3,0-1.3,0l-0.4,0c-21.8,1-40,10.9-51,28.1    c-10.3,16-11.9,34.2-11.9,43.6c-0.1,28,12.4,81.5,26.8,114.6c9.8,22.4,23.4,29.5,33.2,31.5l0.8,0.2l3.8,0.5l3.9-0.5    c0.1,10.6,3.5,18.1,7.1,23.1l0.5,0.6l2.4,2.9l3.2,2.3l0.8,0.5c4.6,2.8,11.1,5.3,19.7,5.4c-1.1,4.2-1.3,8-1.1,11.2l0,0.8l0.5,3.8    l1.5,3.7l0.4,0.8c1.3,2.6,3.1,5.4,5.7,8.2c-2.3,2.3-4,4.7-5.4,6.9l-0.4,0.7l-1.7,3.4l-0.9,3.9l-0.1,0.9    c-0.8,5.7-0.4,13.3,3.6,21.9c-10.2-0.8-17.9,1.9-23.1,5l-0.7,0.4l-3.1,2.1l-2.6,3l-0.6,0.8c-3.7,5-7.2,12.5-7.4,23.2    c-4.1-1.3-7.9-1.7-11.2-1.7l-0.8,0l-3.8,0.3l-3.7,1.3l-0.8,0.4c-9.1,3.9-21,13.7-26,37.7c-7.3,35.3-8.5,90.3-2.6,117.7    c2,9.2,7.3,26.7,20.7,40.2c11.6,11.8,26.9,18,43.8,18c3.9,0,7.9-0.3,11.9-1l0.4-0.1c0,0,1-0.2,1.3-0.2c0.2,0,1.3-0.3,1.3-0.3    l0.4-0.1c21.2-5.4,36.8-18.9,44.1-38c4.4-11.6,5-23.4,4.4-32.7c5.6,3.5,12.1,6.7,19.3,8.7c5.3,1.5,10.7,2.2,16.1,2.2    c14.3,0,28.4-5.2,40.7-15.3l0.3-0.3c0,0,0.8-0.7,1-0.8c0.2-0.2,1-0.9,1-0.9l0.3-0.3c15.6-15.3,22.4-34.8,19.1-55    c-1.7-10.5-5.9-19.7-10.3-27c4.3,0.7,9.1,1.3,14.2,1.3c5.1,0,10.6-0.5,16.1-1.8c19.9-4.7,35.3-18.4,43.5-38.7l0.2-0.4    c0,0,0.4-1,0.4-1.1c0.1-0.2,0.4-1.3,0.4-1.3l0.1-0.4c6.4-20.9,3-41.3-9.6-57.4C1621.3,589.9,1613.1,583.8,1605.6,579.5z"/>
<path class="st0" d="M1335.8,690.4l-1.4-3.5l-2.3-3.2l-0.6-0.7c-6.5-7.6-19.3-16.1-43.6-13.7c-35.9,3.4-88.8,18.5-113.2,32.1    c-8.2,4.6-23.3,14.8-32.4,31.6c-9.7,18-9.6,38.7,0.1,58.2l0.2,0.4c0,0,0.5,0.9,0.6,1.1l0.1,0.1c0.1,0.2,0.6,1,0.6,1l0.2,0.4    c11.4,18.6,28.9,29.6,49.3,31c1.4,0.1,2.8,0.1,4.2,0.1c17.2,0,32.1-6.6,39.7-10.8c24.5-13.4,65.3-50.4,87.3-79    c14.9-19.4,14.5-34.8,11.5-44.3L1335.8,690.4z"/>
</g>
</g>
<g id="Layer_4">
<path class="st1" d="M1394.7,314.6c0,0-0.6,0-0.8,0c-0.1,0-0.8,0-0.8,0c-33,1.4-41.3,29.6-41.4,49.4   c-0.1,23.1,10.8,73.1,24.9,105.5c6.9,15.9,14.7,18,17.1,18.4l0.2,0l0.2,0c2.3-0.5,10.1-2.5,17.1-18.4c14.1-32.4,25-82.4,24.9-105.5   C1436,344.2,1427.6,316.1,1394.7,314.6z"/>
<path class="st1" d="M1541.2,393.4c0,0-0.4-0.4-0.5-0.5c-0.1-0.1-0.6-0.5-0.6-0.5c-25.2-21.3-50.4-6.3-63.9,8.2   c-15.8,16.9-41.6,61-53.2,94.5c-5.7,16.4-1.4,23.2,0,25.1l0.1,0.2l0.2,0.1c2,1.2,9.2,5,25-2c32.4-14.3,74.3-43.6,89.8-60.7   C1551.6,443.2,1564.5,416.8,1541.2,393.4z"/>
<path class="st1" d="M1620.5,511.2c0,0-0.1-0.6-0.2-0.7c0-0.1-0.2-0.7-0.2-0.7c-9.9-31.5-39.2-32.3-58.4-27.3   c-22.4,5.9-67.8,29.3-95.5,51.3c-13.6,10.8-13.6,18.8-13.4,21.2l0,0.2l0.1,0.2c1.1,2.1,5.1,9.1,22.2,11.7   c35,5.3,86.1,2.9,108.4-3.1C1602.5,558.8,1627.6,543.4,1620.5,511.2z"/>
<path class="st1" d="M1615.4,650.7c0,0,0.2-0.6,0.3-0.7c0-0.1,0.2-0.7,0.2-0.7c9.6-31.6-14.1-48.8-32.8-55.5   c-21.8-7.8-72.5-14.2-107.8-11.6c-17.3,1.2-21.8,7.9-23.1,9.9l-0.1,0.2l0,0.2c-0.3,2.4-1,10.4,11.7,22.2   c25.9,24.1,69.4,51,91.2,58.6C1573.8,679.8,1603.1,681.3,1615.4,650.7z"/>
<path class="st1" d="M1536.8,765.3c0,0,0.5-0.4,0.6-0.5s0.5-0.5,0.5-0.5c23.6-23.1,11-49.6-2.2-64.4c-15.4-17.3-56.9-47.2-89-61.9   c-15.8-7.2-23-3.5-25-2.3l-0.2,0.1l-0.1,0.2c-1.4,1.9-5.8,8.6-0.4,25.1c11.2,33.6,36.4,78,52,95.1   C1486.3,770.9,1511.3,786.3,1536.8,765.3z"/>
<path class="st1" d="M1419.5,836.4c0,0,0.6-0.1,0.7-0.1c0.1,0,0.7-0.2,0.7-0.2c32-8.2,34.4-37.4,30.4-56.8   c-4.6-22.7-25.6-69.3-46.1-98.1c-10.1-14.2-18.1-14.6-20.5-14.5l-0.2,0l-0.2,0.1c-2.2,0.9-9.4,4.6-12.9,21.6   c-7.2,34.6-7.6,85.8-2.7,108.4C1373,815.9,1386.9,841.7,1419.5,836.4z"/>
<path class="st2" d="M1162.5,781.1c0,0,0.3,0.5,0.4,0.7c0.1,0.1,0.4,0.6,0.4,0.6c17.3,28.1,45.9,21.8,63.3,12.3   c20.3-11.1,58.7-44.9,80.2-72.9c10.6-13.8,8.6-21.6,7.9-23.9l-0.1-0.2l-0.1-0.2c-1.6-1.8-7.1-7.6-24.4-6   c-35.2,3.4-84.2,18.1-104.4,29.4C1168.4,730.7,1147.8,751.6,1162.5,781.1z"/>
</g>
<g id="Layer_2">
<path class="st0" d="M1487.9,611.1c-4.9,0-9.7,1.4-13.9,4.2v-44.6h8.4c14.2,0,25.3-11.1,25.3-25.3v-14.7c0-14-11.1-25-25.3-25h-8.4   v-10.9c0-14-11-25-25-25h-20.3c-14.2,0-25.3,11-25.3,25v10.9c-7.9,0.6-14.7,4.7-18.8,10.8c-12.4-8.7-28.5-13.1-48.2-13.1   c-19.1,0-36.3,4.1-51.4,12.2c-8.4,4.2-13.7,12.8-13.7,22.6c0,2.3,0.3,4.6,1,6.7c0.3,1,0.6,2,1,2.9l5.5,13.6   c0.2,0.5,0.4,0.9,0.6,1.4c-1.3,1.1-2.6,2.2-3.9,3.4c-11.4,10.8-18.3,24.6-20.3,40.5c-1.7-0.2-3.3-0.3-5.1-0.3   c-8.6,0-16.4,2.6-23.1,7.5c-0.6-0.2-1.1-0.4-1.7-0.6V576c0-22.3-6.6-40.2-19.8-53.1c-13-12.9-31.8-19.4-55.9-19.4   c-19.1,0-36.3,4.1-51.4,12.2c-5.9,2.9-10.2,8-12.3,14.2c-1.7-2.4-3.5-4.8-5.5-6.9c-12-12.9-29.8-19.4-52.9-19.4   c-13,0-24.8,3-35.3,8.9c-1.6,0.9-3.2,1.9-4.7,2.9c-1.6-1.1-3.3-2.2-5.1-3.2c-10.1-5.7-22.6-8.6-37-8.6c-11.9,0-22.8,2.5-32.6,7.4   c-0.8,0.4-1.6,0.8-2.3,1.2c-6.5-3.7-14.2-5.6-22.9-5.6c-6.9,0-14.1,1.5-21.4,4.4c-1.1,0.4-2.1,0.9-3.2,1.4   c-5.7-2.4-11.4-4.4-17.2-5.7c-8.7-2.1-17.2-3.1-25.2-3.1c-18.9,0-35.3,5-48.7,14.8c-2.3,1.7-4.5,3.6-6.5,5.5   c-10.6-10.1-27.9-20.3-55-20.3c-25.2,0-46.6,9.1-61.9,26.3c-0.7,0.8-1.5,1.7-2.2,2.6c-1-1.3-2-2.6-3.1-3.8   c-9.9-11.4-28.2-25-59.4-25c-17.5,0-33.2,4.4-46.3,12.9c-0.6-0.4-1.2-0.8-1.8-1.2c-4.4-3-9.5-5.4-15-7.2   c-6.1-1.9-12.8-2.9-20.6-2.9c-10.8,0-21.1,2.9-30.6,8.5c-6.6-4.4-14.7-6.9-23.9-6.9c-6.9,0-14,1.4-21.1,4.2   c-6.2,2.5-12.3,5.9-18.1,10.1c-12.9-11.7-31.1-17.7-54-17.7c-18.5,0-35.4,3.9-50.1,11.5c-0.6-0.3-1.1-0.5-1.5-0.7   c-0.4-0.2-0.9-0.3-1.3-0.5l-0.1,0c-6.9-2.8-13.9-5.2-20.8-7c-8.1-2.2-16.9-3.3-26.3-3.3c-12.5,0-24.4,2.2-35.2,6.7   c-11.1,4.5-20.8,11.1-28.9,19.6c-8,8.4-14.2,18.3-18.4,29.4c-4.1,10.8-6.2,22.7-6.2,35.2c0,26.2,7.9,48,23.5,64.8   c16.1,17.3,37.9,26.1,64.9,26.1c9.1,0,18.2-1.2,27.1-3.5c7.8-2.1,14.9-4.4,21-7c0.2-0.1,0.4-0.2,0.6-0.2   c11.4,7.1,25.4,10.7,41.7,10.7c11.9,0,22.9-2.2,32.5-6.6c1.3-0.6,2.5-1.2,3.7-1.8c6.4,3.3,14.1,5.1,22.8,5.1c7.3,0,14.7-1.5,22-4.4   c1.6-0.6,3.1-1.3,4.7-2.1c4.5,4,10.4,6.4,17,6.4h20.3c14,0,25-11.1,25-25.3v-50.9c0-6.1,0.8-12.3,2.4-18.2c1.5-5.5,3.4-10,5.7-13.5   c0.4-0.6,0.7-0.9,0.9-1.2c0.6,0,0.9,0.1,1,0.1c0.4,0.2,0.7,0.3,0.8,0.4c0,0,0.1,0,0.1,0.1c-1.2,6.6-1.8,13.6-1.8,20.9   c0,25.3,7.5,46.8,22.2,63.8c15.5,18,37.3,27.1,64.6,27.1c12.3,0,22.3-1,30.6-3c7.9-1.9,15.4-4.6,22.5-8c5.6-2.5,9.9-7,12.3-12.5   c15.2,15.6,35.8,23.4,61.2,23.4c12.3,0,22.3-1,30.6-3c7.9-1.9,15.4-4.6,22.5-8c0.3-0.1,0.5-0.3,0.8-0.4c5.9,2.6,12.1,5,18.3,7   c9.3,2.9,20,4.4,32.6,4.4c8.3,0,16.3-1.1,24-3.2c8.3-2.3,16.1-6,23-11c0.3-0.2,0.6-0.5,0.9-0.7c4.5,7,12.3,11.5,21.3,11.5H908   c14.2,0,25.3-11.1,25.3-25.3v-60.9c0-5.2,0.4-9.9,1.2-14.2c0.6-3.2,1.6-6,2.9-8.1c0.6-1,1.1-1.6,2-2.1c0.4-0.2,1.4-0.5,2.8-0.6   c0.5,2.1,1.1,5.6,1.1,11.1v74.8c0,14.2,11.1,25.3,25.3,25.3h21.7c14.2,0,25.3-11.1,25.3-25.3v-60.9c0-5.2,0.4-10,1.2-14.2   c0.7-3.3,1.6-6.2,2.9-8.5c0.5-0.8,0.9-1.3,1.7-1.8c0.5-0.3,1.7-0.6,3.6-0.6c0.3,1.5,0.6,3.8,0.6,7.3v57c0,13.8,3.5,25.1,10.5,33.7   c5.6,6.8,16.2,15,35.1,15c7.4,0,14.9-1.6,22.3-4.6c2.3-0.9,4.5-2,6.7-3.1c11,6.2,24.2,9.4,39.4,9.4c11.9,0,22.9-2.2,32.5-6.6   c1.3-0.6,2.5-1.2,3.7-1.8c6.4,3.3,14.1,5.1,22.8,5.1c7.3,0,14.7-1.5,22-4.4c1.5-0.6,3-1.3,4.4-2c7.1,6,15.7,9.1,25,9.1   c10.3,0,19.8-3.9,27.4-11.2c0.8-0.8,1.5-1.6,2.2-2.4c12.3,9.4,27.9,14.1,46.6,14.1c11.9,0,22.9-2.2,32.5-6.6   c1.3-0.6,2.5-1.2,3.7-1.8c6.4,3.3,14.1,5.1,22.8,5.1c7.3,0,14.7-1.5,22-4.4c4.7-1.9,9.2-4.3,13.4-7.1c10,8.9,23.6,13.4,40.6,13.4   c7,0,14.2-1.1,21.6-3.3c6.7-2,12.2-4.1,16.8-6.5c3.9-2,7-5.2,9.2-9l1.4-2.5c1.9-3.3,2.8-7.1,2.8-10.9v-15.3   C1512.9,622.2,1502,611.1,1487.9,611.1z M1326.6,613c0.5-0.2,1.9-0.5,4.2-0.5c5.4,0,8.6,1,9.7,2c0.3,0.3,0.5,0.4,0.6,0.5   c0,0.1,0,0.3,0,0.6c0,0.8-0.1,1.2-0.1,1.2c0,0-0.2,0.2-0.7,0.6c-1.3,1-3.6,2.4-8.7,2.4c-3.4,0-4.8-0.6-5.2-0.7   c-0.2-0.3-0.4-1.4-0.4-2.9C1326,615.2,1326.1,613.7,1326.6,613z M1139.9,613c0.5-0.2,1.9-0.5,4.2-0.5c5.4,0,8.6,1,9.7,2   c0.3,0.3,0.5,0.4,0.6,0.5c0,0.1,0,0.3,0,0.6c0,0.8-0.1,1.2-0.1,1.2c0,0-0.2,0.2-0.7,0.6c-1.3,1-3.6,2.4-8.7,2.4   c-3.4,0-4.8-0.6-5.2-0.7c-0.2-0.3-0.4-1.4-0.4-2.9C1139.4,615.2,1139.5,613.7,1139.9,613z M265.5,617.1c-3.9,1-7.9,1.5-11.9,1.5   c-7.3,0-10.3-2.4-12.3-4.8c-3.7-4.5-5.5-10.9-5.5-19.4c0-8.2,1.8-14.5,5.4-19.4c1.1-1.4,3.3-4.3,11.6-4.3c4.6,0,8.6,0.4,11.8,1.2   c3.9,1,7.5,2.2,10.6,3.6c1.1,0.5,2.2,0.9,3.4,1.2c1.2,0.3,2.3,0.6,3.6,0.8c-7.3,10.8-11.1,23.7-11.3,37.9   C269,616.1,267.2,616.7,265.5,617.1z M342.8,613c0.5-0.2,1.9-0.5,4.2-0.5c5.4,0,8.6,1,9.7,2c0.3,0.3,0.5,0.4,0.5,0.5   c0,0.1,0,0.3,0,0.6c0,0.8-0.1,1.2-0.1,1.2c0,0-0.2,0.2-0.7,0.6c-1.3,1-3.6,2.4-8.7,2.4c-3.4,0-4.8-0.6-5.2-0.7   c-0.2-0.3-0.4-1.4-0.4-2.9C342.3,615.2,342.4,613.7,342.8,613z"/>
</g>
<g id="Layer_6">
<g>
<path class="st3" d="M287.8,553.5c-0.4,1.1-1.2,1.7-2.5,1.7c-0.2,0-0.4-0.1-0.6-0.3c-0.2,0-0.4,0-0.6,0c-4.3-1.9-8.9-3.4-14-4.7    c-5.1-1.3-10.9-1.9-17.4-1.9c-13,0-22.8,4.4-29.5,13.2c-6.7,8.8-10,19.8-10,33c0,13.9,3.6,25.2,10.7,33.8    c7.1,8.6,17,12.9,29.6,12.9c5.9,0,11.8-0.7,17.5-2.2c5.7-1.5,11.9-4,18.4-7.5c0.2,0,0.5-0.1,0.8-0.3c0.2,0,0.4,0,0.6,0    c1.9,0,2.8,0.9,2.8,2.8v17.5c0,1.3-0.6,2.1-1.7,2.5c-5.2,2.2-11.3,4.3-18.4,6.1c-7,1.9-14.2,2.8-21.4,2.8    c-20.6,0-36.7-6.3-48.4-18.9c-11.7-12.6-17.5-29.1-17.5-49.5c0-9.8,1.6-18.9,4.7-27.3c3.2-8.3,7.7-15.6,13.6-21.8    c5.9-6.2,13-11,21.1-14.3c8.2-3.3,17.1-5,26.7-5c7.4,0,14.2,0.8,20.4,2.5c6.2,1.7,12.5,3.8,18.8,6.4l0.8,0.3    c0.9,0.4,1.4,1.6,1.4,3.6L287.8,553.5z"/>
<path class="st3" d="M428,649.2c-3.9,3.2-8.2,5.7-12.8,7.5c-4.6,1.9-9.2,2.8-13.6,2.8c-10.9,0-17.7-4.2-20.3-12.5    c-3.7,4.4-8.9,8.2-15.6,11.3c-6.7,3.1-14.4,4.6-23.1,4.6c-15.6,0-27.7-4.1-36.3-12.4c-8.6-8.2-12.9-19.7-12.9-34.3    c0-13.7,4.6-24.9,13.8-33.5c9.2-8.6,21.6-12.9,37.1-12.9c7,0,13.7,1.1,19.9,3.3c6.2,2.2,11.4,5,15.4,8.3V573    c0-17.2-10.1-25.9-30.3-25.9c-10.4,0-20.3,2.3-29.8,7c-0.2,0-0.4,0.1-0.6,0.3h-0.6c-1.3,0-2.1-0.5-2.5-1.4l-5.6-13.6    c0-0.2,0-0.4,0-0.6c-0.2-0.2-0.3-0.4-0.3-0.6c0-1.3,0.5-2.1,1.4-2.5c11.9-6.5,25.6-9.7,41.2-9.7c18,0,31.3,4.3,40.1,12.9    c8.7,8.6,13.1,21,13.1,37.1v55.3c0,3,0.3,5,1,6c0.6,1,1.7,1.5,3.2,1.5c1.7,0,4.3-0.9,7.8-2.8l1.4-0.8c0.6-0.4,1.1-0.6,1.7-0.6    c0.9,0,1.7,0.4,2.2,1.1l5.8,9.7L428,649.2z M371.2,597.2c-5.7-4.8-13.8-7.2-24.2-7.2c-8.9,0-15.7,2.4-20.3,7.2    c-4.6,4.8-7,11.1-7,18.9c0,8,2.4,14.3,7.2,19.1c4.8,4.7,11.8,7.1,20.9,7.1c9.1,0,16.7-2.5,22.8-7.4c6.1-4.9,9.2-11.4,9.2-19.3    C379.9,608.1,377,602,371.2,597.2z"/>
<path class="st3" d="M518.9,554.1c-0.4,1.3-1.1,1.9-2.2,1.9c-0.7,0-1.3-0.2-1.7-0.6c-1.7-1.3-3.9-2.5-6.5-3.5    c-2.7-1-5.8-1.5-9.3-1.5c-7.8,0-14.2,3.7-19.2,11.1c-3.7,5.6-6.6,12.3-8.8,20.2c-2.1,7.9-3.2,15.9-3.2,24.1v50.9    c0,1.9-0.8,2.8-2.5,2.8h-20.3c-1.9,0-2.8-0.9-2.8-2.8v-99.3c0-5.2-1.6-7.8-4.7-7.8c-3.3,0-6.3,1.1-8.9,3.3    c-0.4,0.4-0.9,0.6-1.7,0.6c-1.1,0-1.9-0.5-2.2-1.4l-5.6-9.2c0-0.2-0.1-0.4-0.3-0.6c0-0.4,0-0.6,0-0.8c0-0.9,0.3-1.7,0.8-2.2    c4.3-3.2,8.6-5.6,13.1-7.4c4.5-1.8,8.7-2.6,12.8-2.6c11.7,0,18.4,6.7,20,20c3.9-7,8.9-12.4,15-16.1c6.1-3.7,12.6-5.6,19.5-5.6    c5.4,0,10,0.6,13.8,1.8c3.8,1.2,7.1,2.8,9.9,4.9c0.9,0.4,1.4,1.1,1.4,2.2l-0.3,0.3c0,0.2,0,0.4,0,0.6L518.9,554.1z"/>
<path class="st3" d="M549.8,604.4c1.3,10,4.9,18.3,10.8,24.8c3.3,3.7,7.4,6.6,12.1,8.8c4.7,2.1,10.2,3.2,16.5,3.2    c7.8,0,14.8-0.9,21.1-2.6c6.3-1.8,12.1-4,17.2-6.8c0.2,0,0.5-0.1,0.8-0.3h0.6c1.7,0,2.5,0.9,2.5,2.8v17.2c0,1.3-0.5,2.1-1.4,2.5    c-5.7,2.8-11.9,5-18.4,6.5c-6.5,1.6-14.9,2.4-25.3,2.4c-20.6,0-36.4-6.4-47.6-19.3c-11.1-12.9-16.7-29.2-16.7-49.1    c0-20.6,5.6-37.1,16.7-49.6c11.1-12.5,26.1-18.8,45.1-18.8c18.4,0,32.5,5.7,42.4,17.2c9.9,11.5,14.9,28,14.9,49.5v8.9    c0,1.9-0.9,2.8-2.8,2.8H549.8z M560.6,556.2c-5.4,6.4-8.9,15.6-10.6,27.7h63.7c-0.6-12.1-3.3-21.3-8.3-27.7    c-5-6.4-12.4-9.6-22.3-9.6C573.5,546.6,566,549.8,560.6,556.2z"/>
<path class="st3" d="M676.4,604.4c1.3,10,4.9,18.3,10.8,24.8c3.3,3.7,7.4,6.6,12.1,8.8c4.7,2.1,10.2,3.2,16.5,3.2    c7.8,0,14.8-0.9,21.1-2.6c6.3-1.8,12.1-4,17.2-6.8c0.2,0,0.5-0.1,0.8-0.3h0.6c1.7,0,2.5,0.9,2.5,2.8v17.2c0,1.3-0.5,2.1-1.4,2.5    c-5.7,2.8-11.9,5-18.4,6.5c-6.5,1.6-14.9,2.4-25.3,2.4c-20.6,0-36.4-6.4-47.6-19.3c-11.1-12.9-16.7-29.2-16.7-49.1    c0-20.6,5.6-37.1,16.7-49.6c11.1-12.5,26.1-18.8,45.1-18.8c18.4,0,32.5,5.7,42.4,17.2c9.9,11.5,14.9,28,14.9,49.5v8.9    c0,1.9-0.9,2.8-2.8,2.8H676.4z M687.2,556.2c-5.4,6.4-8.9,15.6-10.6,27.7h63.7c-0.6-12.1-3.3-21.3-8.3-27.7    c-5-6.4-12.4-9.6-22.3-9.6C700.1,546.6,692.6,549.8,687.2,556.2z"/>
<path class="st3" d="M863,639.7c-2.8,5.4-6.5,9.8-11.3,13.2c-4.7,3.4-10,5.9-15.7,7.5c-5.7,1.6-11.8,2.4-18.1,2.4    c-10.2,0-18.8-1.1-25.9-3.3c-7-2.2-13.8-4.9-20.3-8.1c-1.1-0.4-1.7-1.1-1.7-2.2v-18.9c0-1.7,0.8-2.5,2.5-2.5    c0.6,0,1.1,0.2,1.7,0.6c6.1,3.9,12.6,7,19.3,9.5c6.8,2.4,14.2,3.6,22.4,3.6c7,0,13.1-1.5,18.1-4.6s7.5-7.6,7.5-13.5    c0-5.4-1.9-9.4-5.8-12c-3.9-2.6-10.5-5.1-19.7-7.5c-7.8-2-14-3.9-18.8-5.7c-4.7-1.8-9.1-4-13.2-6.8c-4.1-2.8-7.2-6.3-9.5-10.4    s-3.3-9.3-3.3-15.4c0-12.4,4.7-22.1,14.2-29.1s21.2-10.4,35.3-10.4c6.3,0,13,0.8,20,2.5c7,1.7,14,4.4,20.9,8.1    c0.7,0.4,1.1,1.1,1.1,2.2c0,0.2,0,0.4,0,0.6l-0.3,0.6l-5.8,13.4c-0.6,0.9-1.4,1.4-2.5,1.4c-0.7,0-1.4-0.2-1.9-0.6l-0.3-0.3    c-0.2,0-0.5-0.1-0.8-0.3c-4.3-1.9-8.9-3.5-13.8-4.9c-4.9-1.4-10.4-2.1-16.5-2.1c-8.2,0-14.3,1.4-18.4,4.3    c-4.1,2.9-6.1,6.9-6.1,12.1c0,4.3,2.5,7.8,7.4,10.6c4.9,2.8,12.2,5.3,21.8,7.5c14.1,3.3,24.6,7.9,31.4,13.6    c6.9,5.8,10.3,14.5,10.3,26.1C867.2,628,865.8,634.4,863,639.7z"/>
<path class="st3" d="M1098.3,650.6c-4.1,3.2-8.5,5.7-13.2,7.6c-4.7,1.9-9.3,2.9-13.8,2.9c-8.2,0-14-2.2-17.7-6.7    c-3.6-4.5-5.4-10.9-5.4-19.5v-57c0-9.5-1.7-16.8-5.1-22c-3.4-5.2-9.2-7.8-17.4-7.8c-6.1,0-11.3,1.3-15.6,3.8    c-4.3,2.5-7.6,5.9-10,10.3c-2.4,4.4-4.2,9.4-5.3,15c-1.1,5.7-1.7,11.8-1.7,18.5v60.9c0,1.9-0.9,2.8-2.8,2.8h-21.7    c-1.9,0-2.8-0.9-2.8-2.8v-74.8c0-10.8-1.7-19.1-5-24.9c-3.3-5.8-9.1-8.8-17.2-8.8c-6.1,0-11.3,1.3-15.6,3.8    c-4.3,2.5-7.6,5.9-10.2,10.3c-2.5,4.4-4.3,9.4-5.4,15c-1.1,5.7-1.7,11.8-1.7,18.5v60.9c0,1.9-0.9,2.8-2.8,2.8h-20.9    c-1.9,0-2.8-0.9-2.8-2.8v-99.6c0-5.2-1.7-7.8-5-7.8c-3,0-6,1.2-9.2,3.6c-0.4,0.4-0.9,0.6-1.7,0.6c-1.1,0-1.9-0.5-2.5-1.4l-5.6-9.5    l-0.3-0.6c0-0.2,0-0.4,0-0.6c0-0.9,0.4-1.7,1.1-2.2c4.3-3.2,8.7-5.7,13.4-7.5c4.6-1.9,9-2.8,13.1-2.8c5.7,0,10.3,1.3,13.6,3.9    c3.3,2.6,5.6,6.1,6.7,10.6c3.5-5,8.6-9.2,15.2-12.5c6.6-3.3,14-5,22.4-5c10.6,0,19.2,1.9,26,5.7c6.8,3.8,11.9,9.3,15.4,16.5    c3.9-6.9,9.4-12.3,16.4-16.3c7-4,15.1-6,24.2-6c16.7,0,28.8,4.1,36.4,12.2c7.6,8.2,11.4,19.7,11.4,34.8v60.1c0,3.2,0.3,5.2,1,6.1    c0.6,0.9,1.7,1.4,3.2,1.4c1.3,0,2.8-0.4,4.5-1.1c1.7-0.7,3.3-1.7,5-2.8c0.6-0.4,1.1-0.6,1.7-0.6c0.9,0,1.7,0.5,2.2,1.4l6.1,9.7    L1098.3,650.6z"/>
<path class="st3" d="M1225.1,649.2c-3.9,3.2-8.2,5.7-12.8,7.5c-4.6,1.9-9.2,2.8-13.6,2.8c-10.9,0-17.7-4.2-20.3-12.5    c-3.7,4.4-8.9,8.2-15.6,11.3c-6.7,3.1-14.4,4.6-23.1,4.6c-15.6,0-27.7-4.1-36.3-12.4c-8.6-8.2-12.9-19.7-12.9-34.3    c0-13.7,4.6-24.9,13.8-33.5c9.2-8.6,21.6-12.9,37.1-12.9c7,0,13.7,1.1,19.9,3.3c6.2,2.2,11.4,5,15.4,8.3V573    c0-17.2-10.1-25.9-30.3-25.9c-10.4,0-20.3,2.3-29.8,7c-0.2,0-0.4,0.1-0.6,0.3h-0.6c-1.3,0-2.1-0.5-2.5-1.4l-5.6-13.6    c0-0.2,0-0.4,0-0.6c-0.2-0.2-0.3-0.4-0.3-0.6c0-1.3,0.5-2.1,1.4-2.5c11.9-6.5,25.6-9.7,41.2-9.7c18,0,31.3,4.3,40.1,12.9    c8.7,8.6,13.1,21,13.1,37.1v55.3c0,3,0.3,5,1,6c0.6,1,1.7,1.5,3.2,1.5c1.7,0,4.3-0.9,7.8-2.8l1.4-0.8c0.6-0.4,1.1-0.6,1.7-0.6    c0.9,0,1.7,0.4,2.2,1.1l5.8,9.7L1225.1,649.2z M1168.4,597.2c-5.7-4.8-13.8-7.2-24.2-7.2c-8.9,0-15.7,2.4-20.3,7.2    c-4.6,4.8-7,11.1-7,18.9c0,8,2.4,14.3,7.2,19.1c4.8,4.7,11.8,7.1,20.9,7.1c9.1,0,16.7-2.5,22.8-7.4c6.1-4.9,9.2-11.4,9.2-19.3    C1177,608.1,1174.1,602,1168.4,597.2z"/>
<path class="st3" d="M1261.8,657.4c-3.3,3.2-7.2,4.9-11.7,4.9s-8.3-1.6-11.7-4.9c-3.3-3.2-5-7.2-5-11.8c0-4.4,1.6-8.3,4.9-11.7    c3.2-3.3,7.2-5,11.8-5c4.6,0,8.6,1.7,11.8,5c3.2,3.3,4.9,7.2,4.9,11.7C1266.8,650.2,1265.2,654.1,1261.8,657.4z"/>
<path class="st3" d="M1411.7,649.2c-3.9,3.2-8.2,5.7-12.8,7.5c-4.6,1.9-9.2,2.8-13.6,2.8c-10.9,0-17.7-4.2-20.3-12.5    c-3.7,4.4-8.9,8.2-15.6,11.3c-6.7,3.1-14.4,4.6-23.1,4.6c-15.6,0-27.7-4.1-36.3-12.4c-8.6-8.2-12.9-19.7-12.9-34.3    c0-13.7,4.6-24.9,13.8-33.5c9.2-8.6,21.6-12.9,37.1-12.9c7,0,13.7,1.1,19.9,3.3c6.2,2.2,11.4,5,15.4,8.3V573    c0-17.2-10.1-25.9-30.3-25.9c-10.4,0-20.3,2.3-29.8,7c-0.2,0-0.4,0.1-0.6,0.3h-0.6c-1.3,0-2.1-0.5-2.5-1.4l-5.6-13.6    c0-0.2,0-0.4,0-0.6c-0.2-0.2-0.3-0.4-0.3-0.6c0-1.3,0.5-2.1,1.4-2.5c11.9-6.5,25.6-9.7,41.2-9.7c18,0,31.3,4.3,40.1,12.9    c8.7,8.6,13.1,21,13.1,37.1v55.3c0,3,0.3,5,1,6c0.6,1,1.7,1.5,3.2,1.5c1.7,0,4.3-0.9,7.8-2.8l1.4-0.8c0.6-0.4,1.1-0.6,1.7-0.6    c0.9,0,1.7,0.4,2.2,1.1l5.8,9.7L1411.7,649.2z M1355,597.2c-5.7-4.8-13.8-7.2-24.2-7.2c-8.9,0-15.7,2.4-20.3,7.2    c-4.6,4.8-7,11.1-7,18.9c0,8,2.4,14.3,7.2,19.1c4.8,4.7,11.8,7.1,20.9,7.1c9.1,0,16.7-2.5,22.8-7.4c6.1-4.9,9.2-11.4,9.2-19.3    C1363.6,608.1,1360.7,602,1355,597.2z"/>
<path class="st3" d="M1489.1,654.2c-3.2,1.7-7.4,3.3-12.7,4.9c-5.3,1.6-10.3,2.4-15.2,2.4c-12.1,0-21-2.9-26.7-8.8    c-5.8-5.8-8.6-15.2-8.6-28.2v-76.2h-20.6c-1.7,0-2.5-0.9-2.5-2.8v-14.7c0-1.7,0.8-2.5,2.5-2.5h20.6v-33.4c0-1.7,0.9-2.5,2.8-2.5    h20.3c1.7,0,2.5,0.8,2.5,2.5v33.4h30.9c1.9,0,2.8,0.8,2.8,2.5v14.7c0,1.9-0.9,2.8-2.8,2.8h-30.9v73.1c0,7,0.9,11.9,2.6,14.6    c1.8,2.7,5.4,4,11,4c3.5,0,7.4-0.6,11.5-1.8c4.2-1.2,7.4-2.5,9.6-4c0.6-0.4,1.1-0.6,1.7-0.6c1.7,0,2.5,0.9,2.5,2.8v15.3    L1489.1,654.2z"/>
</g>
</g>
</svg>