<?xml version="1.0" encoding="utf-8"?>
<svg fill="none" height="52" viewBox="-0.13 -0.13 25.41 22.25" width="56" xmlns="http://www.w3.org/2000/svg" xmlns:xlink="http://www.w3.org/1999/xlink">
<path d="M0 19.9175V18.7456C0 17.4949 0.916758 16.6636 2.29153 16.6636C3.27361 16.6636 4.01994 17.1351 4.33453 17.8946L3.24113 18.3595C3.04479 17.9796 2.71743 17.7442 2.29189 17.7442C1.65688 17.7442 1.23135 18.1697 1.23135 18.8113V19.8525C1.23135 20.4941 1.65688 20.9196 2.29846 20.9196C2.7437 20.9196 3.07107 20.6707 3.26741 20.2715L4.36737 20.7102C4.06629 21.509 3.31339 21.9999 2.29846 21.9999C0.916758 21.9995 0 21.1682 0 19.9175Z" fill="#000000"/>
<path d="M8.17369 18.202V21.934H7.17007L7.15037 21.5216C6.8949 21.8227 6.51535 21.9997 6.06354 21.9997C5.17963 21.9997 4.5968 21.3844 4.5968 20.4545V19.6819C4.5968 18.752 5.17963 18.1367 6.06354 18.1367C6.51535 18.1367 6.8949 18.3134 7.15037 18.6148L7.17007 18.2024H8.17369V18.202ZM7.05256 20.3301V19.8064C7.05256 19.4137 6.79709 19.1516 6.41754 19.1516C6.03143 19.1516 5.77596 19.4137 5.77596 19.8064V20.3301C5.77596 20.7228 6.03143 20.9848 6.41754 20.9848C6.79709 20.9848 7.05256 20.7231 7.05256 20.3301Z" fill="#000000"/>
<path d="M9.87527 19.1188V20.9453C9.87527 20.9913 9.90154 21.0172 9.94716 21.0172H10.6413V21.934H9.87016C9.19573 21.934 8.75049 21.5672 8.75049 21.0107V17.2061H9.87527V18.2024H10.6413V19.1191H9.87527V19.1188Z" fill="#000000"/>
<path d="M11.7859 21.9348H11.1925V18.2046H11.7658L11.7702 18.5867C12.0297 18.3385 12.3855 18.2046 12.7994 18.2046H13.1837V18.76H12.7428C12.1706 18.76 11.7859 19.1524 11.7859 19.7359V21.9348Z" fill="#000000"/>
<path d="M14.5977 21.9973C13.678 21.9973 13.0602 21.3641 13.0602 20.4222V19.7138C13.0602 18.7715 13.678 18.1387 14.5977 18.1387C15.0459 18.1387 15.4254 18.2868 15.6962 18.5617L15.7002 18.2011H16.2736V21.9345H15.7002L15.6962 21.567C15.4232 21.8437 15.0375 21.9973 14.5977 21.9973ZM14.6601 18.6941C14.0485 18.6941 13.6529 19.1065 13.6529 19.7452V20.3846C13.6529 21.0229 14.0481 21.4356 14.6601 21.4356C15.2795 21.4356 15.6798 21.0232 15.6798 20.3846V19.7452C15.6798 19.1069 15.2798 18.6941 14.6601 18.6941Z" fill="#000000"/>
<path d="M18.3422 21.9974C17.4226 21.9974 16.8047 21.3642 16.8047 20.4223V19.7139C16.8047 18.7716 17.4226 18.1388 18.3422 18.1388C18.7783 18.1388 19.1524 18.2826 19.4247 18.5497V16.856H20.0181V21.935H19.4447L19.4407 21.5675C19.1681 21.8437 18.7824 21.9974 18.3422 21.9974ZM18.405 18.6942C17.7933 18.6942 17.3977 19.1066 17.3977 19.7453V20.3847C17.3977 21.023 17.793 21.4357 18.405 21.4357C19.0243 21.4357 19.4247 21.0233 19.4247 20.3847V19.7453C19.4247 19.107 19.0243 18.6942 18.405 18.6942Z" fill="#000000"/>
<path d="M21.2758 21.935H20.6827V18.2048H21.2758V21.935ZM21.2758 17.5326H20.6827V16.856H21.2758V17.5326Z" fill="#000000"/>
<path d="M23.5219 21.9973C22.561 21.9973 21.9154 21.3568 21.9154 20.4032V19.7328C21.9154 18.7792 22.561 18.1387 23.5219 18.1387C24.4828 18.1387 25.1284 18.7792 25.1284 19.7328V20.4036C25.1284 21.3568 24.4828 21.9973 23.5219 21.9973ZM23.5219 18.6941C22.9157 18.6941 22.5085 19.1189 22.5085 19.7514V20.3846C22.5085 21.0229 22.9062 21.4356 23.5219 21.4356C24.1376 21.4356 24.5354 21.0232 24.5354 20.3846V19.7514C24.5354 19.1091 24.1376 18.6941 23.5219 18.6941Z" fill="#000000"/>
<path d="M14.0574 16.7837L13.8472 17.3092L15.4041 17.9315L15.5752 17.5034L14.0574 16.7837Z" fill="#000000"/>
<path clip-rule="evenodd" d="M11.1929 9.06382L0.0181885 15.5155V9.40078L16.3009 0V5.77998L25.1571 0.663868V6.77863L11.1929 14.8455V9.06382Z" fill="#FFD000" fill-rule="evenodd"/>
</svg>