<svg xmlns="http://www.w3.org/2000/svg" xmlns:xlink="http://www.w3.org/1999/xlink" xmlns:serif="http://www.serif.com/" width="1290" height="621" viewBox="0 0 1290 621" version="1.1" xml:space="preserve" style="fill-rule:evenodd;clip-rule:evenodd;stroke-linejoin:round;stroke-miterlimit:2;">
    <g transform="matrix(1,0,0,1,-1616,0)">
        <g id="logo-esc-color" transform="matrix(1,0,0,1,1616.51,0)">
            <rect x="0" y="0" width="1288.99" height="620.569" style="fill:none;"/>
            <clipPath id="_clip1">
                <rect x="0" y="0" width="1288.99" height="620.569"/>
            </clipPath>
            <g clip-path="url(#_clip1)">
                <g transform="matrix(0.600619,0,0,0.600619,-638.426,-434.578)">
                    <g>
                        <g transform="matrix(2.79144,0,0,2.79144,-2783.9,-1535.82)">
                            <path d="M1528.68,1179.53C1442.76,1161.77 1378.09,1085.61 1378.09,994.462C1378.09,903.313 1442.76,827.15 1528.68,809.393C1533.45,816.397 1537.95,823.595 1542.18,830.971C1462.71,842.986 1401.71,911.657 1401.71,994.462C1401.71,1077.27 1462.71,1145.94 1542.18,1157.95C1537.95,1165.33 1533.45,1172.53 1528.68,1179.53Z" style="fill:url(#_Linear2);"/>
                        </g>
                        <g transform="matrix(2.79144,0,0,2.79144,-2783.9,-1535.82)">
                            <path d="M1553.89,1135.59C1481.83,1128.93 1425.33,1068.24 1425.33,994.462C1425.33,920.681 1481.83,859.992 1553.89,853.335C1557.47,860.87 1560.77,868.561 1563.78,876.396C1500.11,878.137 1448.95,930.372 1448.95,994.462C1448.95,1058.55 1500.11,1110.79 1563.78,1112.53C1560.77,1120.36 1557.47,1128.05 1553.89,1135.59Z" style="fill:url(#_Linear3);"/>
                        </g>
                        <g transform="matrix(2.79144,0,0,2.79144,-2783.9,-1535.82)">
                            <path d="M1571.87,1088.83C1570.28,1088.91 1568.67,1088.95 1567.06,1088.95C1514.91,1088.95 1472.58,1046.61 1472.58,994.462C1472.58,942.312 1514.91,899.974 1567.06,899.974C1568.67,899.974 1570.28,900.014 1571.87,900.094C1574.26,908.092 1576.35,916.218 1578.14,924.457C1574.53,923.89 1570.83,923.596 1567.06,923.596C1527.95,923.596 1496.2,955.35 1496.2,994.462C1496.2,1033.57 1527.95,1065.33 1567.06,1065.33C1570.83,1065.33 1574.53,1065.03 1578.14,1064.47C1576.35,1072.71 1574.26,1080.83 1571.87,1088.83Z" style="fill:url(#_Linear4);"/>
                        </g>
                        <g transform="matrix(2.79144,0,0,2.79144,-2783.9,-1535.82)">
                            <path d="M1582.6,1039.09C1577.74,1040.78 1572.51,1041.71 1567.06,1041.71C1540.99,1041.71 1519.82,1020.54 1519.82,994.462C1519.82,968.387 1540.99,947.218 1567.06,947.218C1572.51,947.218 1577.74,948.14 1582.6,949.836C1583.92,959.567 1584.82,969.432 1585.27,979.411C1580.93,974.177 1574.38,970.84 1567.06,970.84C1554.03,970.84 1543.44,981.424 1543.44,994.462C1543.44,1007.5 1554.03,1018.08 1567.06,1018.08C1574.38,1018.08 1580.93,1014.75 1585.27,1009.51C1584.82,1019.49 1583.92,1029.36 1582.6,1039.09Z" style="fill:url(#_Linear5);"/>
                        </g>
                    </g>
                </g>
                <g transform="matrix(0.74732,0,0,0.74732,-143.876,-3586.11)">
                    <g>
                        <path d="M751.428,5059.52L917.092,5059.52L917.092,5012.84L806.039,5012.84L806.039,4968.6L900.923,4968.6L900.923,4924.98L806.039,4924.98L806.039,4883.79L916.177,4883.79L916.177,4837.11L751.428,4837.11L751.428,5059.52Z" style="fill:url(#_Linear6);fill-rule:nonzero;"/>
                        <path d="M1033.03,5062.57C1095.57,5062.57 1127,5033.89 1127,4993.01C1127,4938.4 1087.64,4928.64 1051.03,4922.84C1014.72,4917.35 1000.38,4915.21 1000.38,4896.91C1000.38,4883.79 1012.59,4875.25 1031.81,4875.25C1048.89,4875.25 1064.15,4881.96 1065.37,4900.87L1120.28,4900.87C1120.28,4860.91 1086.11,4834.36 1033.33,4834.36C977.805,4834.36 943.94,4860.6 943.94,4904.23C943.94,4942.98 970.178,4962.5 1021.43,4970.44C1060.18,4976.23 1069.94,4979.89 1069.94,4998.81C1069.94,5013.45 1056.52,5020.78 1035.47,5020.78C1006.79,5020.78 994.891,5008.27 994.891,4989.35L939.059,4989.35C939.364,5032.98 972.009,5062.57 1033.03,5062.57Z" style="fill:url(#_Linear7);fill-rule:nonzero;"/>
                        <path d="M1159.64,5059.52L1214.25,5059.52L1214.25,4986.3L1257.88,4986.3C1309.13,4986.3 1338.42,4955.79 1338.42,4911.25C1338.42,4864.26 1306.39,4837.11 1257.88,4837.11L1159.64,4837.11L1159.64,5059.52ZM1248.12,4883.18C1265.2,4883.18 1282.59,4888.67 1282.59,4913.38C1282.59,4938.71 1265.2,4944.2 1248.12,4944.2L1214.25,4944.2L1214.25,4883.18L1248.12,4883.18Z" style="fill:url(#_Linear8);fill-rule:nonzero;"/>
                        <path d="M1325.61,5059.52L1382.66,5059.52L1395.78,5016.81L1476.63,5016.81L1490.05,5059.52L1546.8,5059.52L1475.1,4837.11L1397.31,4837.11L1325.61,5059.52ZM1408.29,4975.01L1424.15,4924.37L1435.44,4886.53L1437.27,4886.53L1448.26,4924.37L1464.43,4975.01L1408.29,4975.01Z" style="fill:url(#_Linear9);fill-rule:nonzero;"/>
                        <rect x="1569.07" y="4837.11" width="54.611" height="222.411" style="fill:url(#_Linear10);fill-rule:nonzero;"/>
                        <path d="M831.667,5327.67C894.211,5327.67 925.635,5298.99 925.635,5258.11C925.635,5203.5 886.278,5193.74 849.667,5187.94C813.361,5182.45 799.022,5180.31 799.022,5162.01C799.022,5148.89 811.226,5140.35 830.447,5140.35C847.532,5140.35 862.786,5147.06 864.007,5165.97L918.923,5165.97C918.923,5126.01 884.753,5099.46 831.972,5099.46C776.445,5099.46 742.58,5125.7 742.58,5169.33C742.58,5208.08 768.818,5227.6 820.073,5235.53C858.82,5241.33 868.583,5244.99 868.583,5263.91C868.583,5278.55 855.159,5285.87 834.108,5285.87C805.429,5285.87 793.53,5273.37 793.53,5254.45L737.699,5254.45C738.004,5298.08 770.649,5327.67 831.667,5327.67Z" style="fill:url(#_Linear11);fill-rule:nonzero;"/>
                        <path d="M1059.27,5327.67C1127,5327.67 1172.15,5286.48 1172.15,5213.26C1172.15,5140.35 1127,5099.16 1059.27,5099.16C991.84,5099.16 946.686,5140.35 946.686,5213.26C946.686,5286.48 991.84,5327.67 1059.27,5327.67ZM1059.27,5280.99C1025.4,5280.99 1002.82,5259.94 1002.82,5213.26C1002.82,5166.89 1025.4,5145.84 1059.27,5145.84C1093.43,5145.84 1116.01,5167.19 1116.01,5213.26C1116.01,5259.64 1093.43,5280.99 1059.27,5280.99Z" style="fill:url(#_Linear12);fill-rule:nonzero;"/>
                        <path d="M1204.79,5324.62L1260.62,5324.62L1260.62,5243.77L1259.1,5182.14L1261.54,5182.14L1344.22,5324.62L1405.54,5324.62L1405.54,5102.21L1353.07,5102.21L1353.07,5179.7L1354.9,5248.96L1352.76,5248.96L1269.78,5102.21L1204.79,5102.21L1204.79,5324.62Z" style="fill:url(#_Linear13);fill-rule:nonzero;"/>
                        <path d="M1550.77,5327.67C1618.5,5327.67 1663.65,5286.48 1663.65,5213.26C1663.65,5140.35 1618.5,5099.16 1550.77,5099.16C1483.34,5099.16 1438.19,5140.35 1438.19,5213.26C1438.19,5286.48 1483.34,5327.67 1550.77,5327.67ZM1550.77,5280.99C1516.9,5280.99 1494.32,5259.94 1494.32,5213.26C1494.32,5166.89 1516.9,5145.84 1550.77,5145.84C1584.94,5145.84 1607.51,5167.19 1607.51,5213.26C1607.51,5259.64 1584.94,5280.99 1550.77,5280.99Z" style="fill:url(#_Linear14);fill-rule:nonzero;"/>
                        <path d="M1696.3,5324.62L1750.91,5324.62L1750.91,5246.82L1797.28,5246.82C1821.99,5246.82 1828.4,5256.89 1828.4,5274.28L1828.4,5298.38C1828.4,5309.98 1829.62,5319.43 1832.06,5324.62L1886.98,5324.62C1883.32,5315.77 1883.32,5306.62 1883.32,5298.38L1883.32,5264.82C1883.32,5240.11 1872.33,5226.69 1850.37,5222.11L1850.37,5219.98C1873.86,5214.48 1888.81,5193.74 1888.81,5167.19C1888.81,5125.4 1862.87,5102.21 1809.18,5102.21L1696.3,5102.21L1696.3,5324.62ZM1750.91,5203.81L1750.91,5147.06L1801.25,5147.06C1819.86,5147.06 1832.67,5154.38 1832.67,5174.82C1832.67,5191.6 1823.82,5203.81 1801.25,5203.81L1750.91,5203.81Z" style="fill:url(#_Linear15);fill-rule:nonzero;"/>
                        <path d="M844.947,5592.77C901.999,5592.77 944.407,5560.43 949.899,5511.92L894.372,5511.92C890.101,5532.67 869.66,5546.09 844.947,5546.09C810.472,5546.09 788.201,5525.04 788.201,5478.36C788.201,5431.99 810.472,5410.94 844.947,5410.94C870.575,5410.94 889.491,5424.97 894.372,5444.8L949.899,5444.8C944.407,5396.6 902.915,5364.26 844.947,5364.26C777.217,5364.26 732.064,5405.44 732.064,5478.36C732.064,5551.58 777.217,5592.77 844.947,5592.77Z" style="fill:url(#_Linear16);fill-rule:nonzero;"/>
                        <path d="M950.204,5589.72L1007.26,5589.72L1020.38,5547.01L1101.22,5547.01L1114.65,5589.72L1171.39,5589.72L1099.7,5367.31L1021.9,5367.31L950.204,5589.72ZM1032.88,5505.21L1048.75,5454.57L1060.04,5416.73L1061.87,5416.73L1072.85,5454.57L1089.02,5505.21L1032.88,5505.21Z" style="fill:url(#_Linear17);fill-rule:nonzero;"/>
                        <path d="M1211.97,5589.72L1266.89,5589.72L1266.89,5414.29L1331.87,5414.29L1331.87,5367.31L1148.51,5367.31L1148.51,5414.29L1211.97,5414.29L1211.97,5589.72Z" style="fill:url(#_Linear18);fill-rule:nonzero;"/>
                        <path d="M1308.99,5589.72L1366.04,5589.72L1379.16,5547.01L1460.01,5547.01L1473.43,5589.72L1530.18,5589.72L1458.49,5367.31L1380.69,5367.31L1308.99,5589.72ZM1391.67,5505.21L1407.54,5454.57L1418.82,5416.73L1420.65,5416.73L1431.64,5454.57L1447.81,5505.21L1391.67,5505.21Z" style="fill:url(#_Linear19);fill-rule:nonzero;"/>
                        <path d="M1552.45,5589.72L1688.14,5589.72L1688.14,5541.21L1607.07,5541.21L1607.07,5367.31L1552.45,5367.31L1552.45,5589.72Z" style="fill:url(#_Linear20);fill-rule:nonzero;"/>
                        <path d="M1787.37,5349L1826.42,5349L1809.64,5304.15L1758.69,5304.15L1787.37,5349ZM1696.15,5589.72L1753.2,5589.72L1766.32,5547.01L1847.17,5547.01L1860.6,5589.72L1917.34,5589.72L1845.65,5367.31L1767.85,5367.31L1696.15,5589.72ZM1778.83,5505.21L1794.7,5454.57L1805.98,5416.73L1807.82,5416.73L1818.8,5454.57L1834.97,5505.21L1778.83,5505.21Z" style="fill:url(#_Linear21);fill-rule:nonzero;"/>
                    </g>
                </g>
            </g>
        </g>
    </g>
    <defs>
        <linearGradient id="_Linear2" x1="0" y1="0" x2="1" y2="0" gradientUnits="userSpaceOnUse" gradientTransform="matrix(504.655,0.185434,-0.0892752,242.96,1378.09,994.276)"><stop offset="0" style="stop-color:rgb(242,13,13);stop-opacity:1"/><stop offset="1" style="stop-color:rgb(69,0,193);stop-opacity:1"/></linearGradient>
        <linearGradient id="_Linear3" x1="0" y1="0" x2="1" y2="0" gradientUnits="userSpaceOnUse" gradientTransform="matrix(504.655,0.185434,-0.0892752,242.96,1378.09,994.276)"><stop offset="0" style="stop-color:rgb(242,13,13);stop-opacity:1"/><stop offset="1" style="stop-color:rgb(69,0,193);stop-opacity:1"/></linearGradient>
        <linearGradient id="_Linear4" x1="0" y1="0" x2="1" y2="0" gradientUnits="userSpaceOnUse" gradientTransform="matrix(504.655,0.185434,-0.0892752,242.96,1378.09,994.276)"><stop offset="0" style="stop-color:rgb(242,13,13);stop-opacity:1"/><stop offset="1" style="stop-color:rgb(69,0,193);stop-opacity:1"/></linearGradient>
        <linearGradient id="_Linear5" x1="0" y1="0" x2="1" y2="0" gradientUnits="userSpaceOnUse" gradientTransform="matrix(504.655,0.185434,-0.0892752,242.96,1378.09,994.276)"><stop offset="0" style="stop-color:rgb(242,13,13);stop-opacity:1"/><stop offset="1" style="stop-color:rgb(69,0,193);stop-opacity:1"/></linearGradient>
        <linearGradient id="_Linear6" x1="0" y1="0" x2="1" y2="0" gradientUnits="userSpaceOnUse" gradientTransform="matrix(1132.18,0.416017,-0.200287,545.074,192.523,5213.42)"><stop offset="0" style="stop-color:rgb(242,13,13);stop-opacity:1"/><stop offset="1" style="stop-color:rgb(69,0,193);stop-opacity:1"/></linearGradient>
        <linearGradient id="_Linear7" x1="0" y1="0" x2="1" y2="0" gradientUnits="userSpaceOnUse" gradientTransform="matrix(1132.18,0.416017,-0.200287,545.074,192.523,5213.42)"><stop offset="0" style="stop-color:rgb(242,13,13);stop-opacity:1"/><stop offset="1" style="stop-color:rgb(69,0,193);stop-opacity:1"/></linearGradient>
        <linearGradient id="_Linear8" x1="0" y1="0" x2="1" y2="0" gradientUnits="userSpaceOnUse" gradientTransform="matrix(1132.18,0.416017,-0.200287,545.074,192.523,5213.42)"><stop offset="0" style="stop-color:rgb(242,13,13);stop-opacity:1"/><stop offset="1" style="stop-color:rgb(69,0,193);stop-opacity:1"/></linearGradient>
        <linearGradient id="_Linear9" x1="0" y1="0" x2="1" y2="0" gradientUnits="userSpaceOnUse" gradientTransform="matrix(1132.18,0.416017,-0.200287,545.074,192.523,5213.42)"><stop offset="0" style="stop-color:rgb(242,13,13);stop-opacity:1"/><stop offset="1" style="stop-color:rgb(69,0,193);stop-opacity:1"/></linearGradient>
        <linearGradient id="_Linear10" x1="0" y1="0" x2="1" y2="0" gradientUnits="userSpaceOnUse" gradientTransform="matrix(1132.18,0.416017,-0.200287,545.074,192.523,5213.42)"><stop offset="0" style="stop-color:rgb(242,13,13);stop-opacity:1"/><stop offset="1" style="stop-color:rgb(69,0,193);stop-opacity:1"/></linearGradient>
        <linearGradient id="_Linear11" x1="0" y1="0" x2="1" y2="0" gradientUnits="userSpaceOnUse" gradientTransform="matrix(1132.18,0.416017,-0.200287,545.074,192.523,5213.42)"><stop offset="0" style="stop-color:rgb(242,13,13);stop-opacity:1"/><stop offset="1" style="stop-color:rgb(69,0,193);stop-opacity:1"/></linearGradient>
        <linearGradient id="_Linear12" x1="0" y1="0" x2="1" y2="0" gradientUnits="userSpaceOnUse" gradientTransform="matrix(1132.18,0.416017,-0.200287,545.074,192.523,5213.42)"><stop offset="0" style="stop-color:rgb(242,13,13);stop-opacity:1"/><stop offset="1" style="stop-color:rgb(69,0,193);stop-opacity:1"/></linearGradient>
        <linearGradient id="_Linear13" x1="0" y1="0" x2="1" y2="0" gradientUnits="userSpaceOnUse" gradientTransform="matrix(1132.18,0.416017,-0.200287,545.074,192.523,5213.42)"><stop offset="0" style="stop-color:rgb(242,13,13);stop-opacity:1"/><stop offset="1" style="stop-color:rgb(69,0,193);stop-opacity:1"/></linearGradient>
        <linearGradient id="_Linear14" x1="0" y1="0" x2="1" y2="0" gradientUnits="userSpaceOnUse" gradientTransform="matrix(1132.18,0.416017,-0.200287,545.074,192.523,5213.42)"><stop offset="0" style="stop-color:rgb(242,13,13);stop-opacity:1"/><stop offset="1" style="stop-color:rgb(69,0,193);stop-opacity:1"/></linearGradient>
        <linearGradient id="_Linear15" x1="0" y1="0" x2="1" y2="0" gradientUnits="userSpaceOnUse" gradientTransform="matrix(1132.18,0.416017,-0.200287,545.074,192.523,5213.42)"><stop offset="0" style="stop-color:rgb(242,13,13);stop-opacity:1"/><stop offset="1" style="stop-color:rgb(69,0,193);stop-opacity:1"/></linearGradient>
        <linearGradient id="_Linear16" x1="0" y1="0" x2="1" y2="0" gradientUnits="userSpaceOnUse" gradientTransform="matrix(1132.18,0.416017,-0.200287,545.074,192.523,5213.42)"><stop offset="0" style="stop-color:rgb(242,13,13);stop-opacity:1"/><stop offset="1" style="stop-color:rgb(69,0,193);stop-opacity:1"/></linearGradient>
        <linearGradient id="_Linear17" x1="0" y1="0" x2="1" y2="0" gradientUnits="userSpaceOnUse" gradientTransform="matrix(1132.18,0.416017,-0.200287,545.074,192.523,5213.42)"><stop offset="0" style="stop-color:rgb(242,13,13);stop-opacity:1"/><stop offset="1" style="stop-color:rgb(69,0,193);stop-opacity:1"/></linearGradient>
        <linearGradient id="_Linear18" x1="0" y1="0" x2="1" y2="0" gradientUnits="userSpaceOnUse" gradientTransform="matrix(1132.18,0.416017,-0.200287,545.074,192.523,5213.42)"><stop offset="0" style="stop-color:rgb(242,13,13);stop-opacity:1"/><stop offset="1" style="stop-color:rgb(69,0,193);stop-opacity:1"/></linearGradient>
        <linearGradient id="_Linear19" x1="0" y1="0" x2="1" y2="0" gradientUnits="userSpaceOnUse" gradientTransform="matrix(1132.18,0.416017,-0.200287,545.074,192.523,5213.42)"><stop offset="0" style="stop-color:rgb(242,13,13);stop-opacity:1"/><stop offset="1" style="stop-color:rgb(69,0,193);stop-opacity:1"/></linearGradient>
        <linearGradient id="_Linear20" x1="0" y1="0" x2="1" y2="0" gradientUnits="userSpaceOnUse" gradientTransform="matrix(1132.18,0.416017,-0.200287,545.074,192.523,5213.42)"><stop offset="0" style="stop-color:rgb(242,13,13);stop-opacity:1"/><stop offset="1" style="stop-color:rgb(69,0,193);stop-opacity:1"/></linearGradient>
        <linearGradient id="_Linear21" x1="0" y1="0" x2="1" y2="0" gradientUnits="userSpaceOnUse" gradientTransform="matrix(1132.18,0.416017,-0.200287,545.074,192.523,5213.42)"><stop offset="0" style="stop-color:rgb(242,13,13);stop-opacity:1"/><stop offset="1" style="stop-color:rgb(69,0,193);stop-opacity:1"/></linearGradient>
    </defs>
</svg>