<?xml version="1.0" encoding="utf-8"?>
<svg class="logo" height="76.81" viewBox="-0.55 -0.54 110.00 77.90" width="108.91" xmlns="http://www.w3.org/2000/svg" xmlns:xlink="http://www.w3.org/1999/xlink"><defs><symbol id="logo-oneconomia" viewBox="0 0 108.91 76.81" xmlns="http://www.w3.org/2000/svg">
<path d="M56.69,69.06c0-5.369,3.13-7.75,6.69-7.75,3.64,0,6.75,2.38,6.75,7.75,0,5.341-3.09,7.75-6.75,7.75C59.7,76.81,56.69,74.41,56.69,69.06Zm1.91.01c0,4.1,1.92,6.27,4.78,6.27,2.821,0,4.84-2.23,4.84-6.27,0-4.119-1.96-6.33-4.84-6.33C60.58,62.74,58.6,64.84,58.6,69.07Zm-30.16-.01c0-5.369,3.13-7.75,6.69-7.75,3.641,0,6.75,2.38,6.75,7.75,0,5.341-3.09,7.75-6.75,7.75C31.45,76.81,28.44,74.41,28.44,69.06Zm1.91.01c0,4.1,1.921,6.27,4.78,6.27,2.821,0,4.84-2.23,4.84-6.27,0-4.119-1.96-6.33-4.84-6.33C32.33,62.74,30.35,64.84,30.35,69.07Zm-15.5-.04c0-4.87,2.79-7.75,6.69-7.75,2.551,0,5.431,1.35,5.76,4.7H25.38a3.726,3.726,0,0,0-3.84-3.21c-3.07,0-4.76,2.531-4.76,6.26,0,3.88,1.731,6.27,4.721,6.27a3.709,3.709,0,0,0,3.94-3.49H27.3c-.239,2.82-2.409,4.97-5.8,4.97C17.61,76.78,14.85,74.26,14.85,69.03Zm87.48,7.47-1.57-4.46H94.77L93.22,76.5H91.4l5.34-14.98h2.15l5.38,14.98ZM97.14,65.2,95.28,70.57h4.97L98.37,65.2c-.32-.9-.59-1.859-.59-1.859h-.04C97.71,63.44,97.43,64.36,97.14,65.2ZM88.31,76.5V61.52h1.82V76.5Zm-3.9,0V63.63h-.06s-.229.76-.8,2.35L79.77,76.49H78.05L74.37,65.98c-.53-1.57-.8-2.35-.8-2.35H73.51V76.5H71.73V61.52h2.76l3.8,10.73c.47,1.31.67,1.96.67,1.96H79s.2-.651.67-1.96l3.86-10.73H86.27V76.5Zm-31.62,0L46.15,65.38a14.045,14.045,0,0,1-.78-1.45h-.04V76.5H43.59V61.52h2.33L52.58,72.66a10.946,10.946,0,0,1,.761,1.471H53.4V61.52h1.72V76.5ZM4.16,76.5V61.53H13.73v1.62H5.98v5H13.11v1.58H5.98v5.15H13.83V76.5Zm98.5-18.16L64.35,13.78V47.44a10.639,10.639,0,0,0,1.6,5.77,9.948,9.948,0,0,0,4.41,3.85v.16H52.57v-.16a10.014,10.014,0,0,0,4.41-3.85,10.725,10.725,0,0,0,1.6-5.77V10.9a10.639,10.639,0,0,0-1.6-5.77,9.953,9.953,0,0,0-4.41-3.85V1.12H70.44L97.12,31.98V10.9a10.639,10.639,0,0,0-1.6-5.77,9.953,9.953,0,0,0-4.41-3.85V1.12h17.8v.16a10.014,10.014,0,0,0-4.41,3.85,10.639,10.639,0,0,0-1.6,5.77V58.34ZM20.43,57.18a29.62,29.62,0,0,1-7.37-3.41A29.269,29.269,0,0,1,6.49,48.12,25.978,25.978,0,0,1,1.8,39.91,30.623,30.623,0,0,1,0,29.25a31.031,31.031,0,0,1,2.53-12.7A25.814,25.814,0,0,1,9.1,7.29,30.491,30.491,0,0,1,17.87,1.88,25.719,25.719,0,0,1,27.41,0a26.517,26.517,0,0,1,7.3,1.08A30.1,30.1,0,0,1,48.73,10.14a26.166,26.166,0,0,1,4.691,8.21,30.627,30.627,0,0,1,1.8,10.66,31.205,31.205,0,0,1-2.52,12.7,26.1,26.1,0,0,1-6.53,9.26,29.809,29.809,0,0,1-8.82,5.41,26.541,26.541,0,0,1-9.7,1.88A25.647,25.647,0,0,1,20.43,57.18ZM17.22,9.61q-3.27,5.054-3.28,14.35,0,12.091,5.33,20.911t11.26,8.82q4.1,0,7.411-5.04Q41.255,43.595,41.26,34.3q0-12.105-5.289-20.92T24.59,4.56Q20.51,4.56,17.22,9.61Z" id="Unión_1">
</path>
</symbol></defs>
<use xlink:href="#logo-oneconomia">
</use>
</svg>