<?xml version="1.0" encoding="utf-8"?>
<svg data-name="Capa 1" height="186.61" id="Capa_1" viewBox="-1.40 -0.73 809.98 190.80" width="807.13" xmlns="http://www.w3.org/2000/svg" xmlns:xlink="http://www.w3.org/1999/xlink">
<defs>
<style>
      .cls-1 {
        fill: currentColor;
      }
    </style>
</defs>
<path class="cls-1" d="M122.66,92.95c7.01-9.26,10.71-20.77,10.71-33.29,0-16.78-5.82-30.99-16.83-41.08-10.91-10-26.16-15.29-44.11-15.29H2.61v181.24h25.74v-68.24h41.73l37.54,68.24h29.05l-40.23-73.28c10.7-3.43,19.74-9.72,26.22-18.3ZM28.35,92.32V27.24h42.56c10.87,0,20.02,3.06,26.45,8.85,6.39,5.74,9.76,13.89,9.76,23.56,0,19.84-14.31,32.66-36.47,32.66H28.35ZM258.93,155.03h.01s0-56.56,0-56.56c0-15.5-4.79-27.62-14.25-36.03-9.31-8.28-22.63-12.48-39.59-12.48-32.3,0-53.46,15.68-56.62,41.95l-.25,2.05h24.39l.29-1.49c1.17-6.06,4.56-11.14,9.81-14.68,5.48-3.69,12.87-5.65,21.36-5.65,9.49,0,17.29,2.33,22.54,6.74,5.13,4.3,7.84,10.64,7.84,18.32v7.04h-36.22c-34.72,0-53.84,14.98-53.84,42.17,0,24.08,19.44,39.63,49.53,39.63,10.63,0,20.03-2.23,27.91-6.64,5.25-2.93,9.96-6.91,14.05-11.85,1.86,11.55,9.84,16.97,24.76,16.97h13.25v-22.7h-8.43c-5.19,0-6.54-1.4-6.54-6.79ZM234.46,129.92c0,21.4-14.95,34.69-39.01,34.69-15.99,0-26.31-7.64-26.31-19.47,0-6.68,2.21-11.53,6.75-14.81,4.51-3.26,11.35-4.92,20.33-4.92h38.24v4.51ZM286.21,184.53h24.47V3.28h-24.47v181.24ZM445.12,155.03h0s0-56.56,0-56.56c0-15.5-4.79-27.62-14.25-36.03-9.31-8.28-22.63-12.48-39.59-12.48-32.3,0-53.46,15.68-56.62,41.95l-.25,2.05h24.39l.29-1.49c1.17-6.06,4.56-11.14,9.81-14.68,5.48-3.69,12.87-5.65,21.36-5.65,9.49,0,17.29,2.33,22.54,6.74,5.13,4.3,7.84,10.64,7.84,18.32v7.04h-36.22c-34.72,0-53.84,14.98-53.84,42.17,0,24.08,19.44,39.63,49.53,39.63,10.63,0,20.03-2.23,27.91-6.64,5.25-2.93,9.96-6.91,14.05-11.85,1.86,11.55,9.84,16.97,24.76,16.97h13.25v-22.7h-8.43c-5.19,0-6.54-1.4-6.54-6.79ZM420.65,129.92c0,21.4-14.95,34.69-39.01,34.69-15.99,0-26.31-7.64-26.31-19.47,0-6.68,2.21-11.53,6.75-14.81,4.51-3.26,11.35-4.92,20.33-4.92h38.24v4.51ZM605.85,105.54l.02-.02c-19.71-2.4-30.86-4.34-30.86-16.44,0-10.75,11.13-17.7,28.35-17.7,16.24,0,28.15,8.62,29.63,21.46l.19,1.63h24.92l-.15-1.97c-1.99-26.36-22.39-42.26-54.58-42.54-17.29-.14-32.12,5.02-41.74,14.55-7.1,7.03-10.85,16.06-10.85,26.1,0,13.1,5.26,22.42,16.09,28.49,10.03,5.63,23.96,7.94,37.53,9.61l1.4.17c20.02,2.36,30.46,4.22,30.46,17.8,0,5.15-2.73,9.57-7.89,12.81-5.29,3.32-12.92,5.14-21.48,5.14-9.98,0-18.48-2.46-24.57-7.11-5.77-4.4-9.01-10.47-9.36-17.53l-.09-1.74h-24.92l.03,1.87c.51,28.34,23.08,45.94,58.91,45.94,14.63,0,28.01-3.85,37.7-10.84,10.39-7.5,15.89-17.9,15.89-30.06,0-30.5-25.84-36.14-54.63-39.62ZM796.14,161.82h.01c-5.19.01-6.54-1.39-6.54-6.78v-56.57c0-15.5-4.79-27.62-14.25-36.03-9.31-8.28-22.63-12.48-39.59-12.48-32.3,0-53.46,15.68-56.62,41.95l-.25,2.05h24.39l.29-1.49c1.17-6.06,4.56-11.14,9.81-14.68,5.48-3.69,12.87-5.65,21.36-5.65,9.49,0,17.29,2.33,22.54,6.74,5.13,4.3,7.84,10.64,7.84,18.32v7.04h-36.22c-34.72,0-53.84,14.98-53.84,42.17,0,24.08,19.44,39.63,49.53,39.63,10.63,0,20.03-2.23,27.91-6.64,5.25-2.93,9.96-6.91,14.05-11.85,1.86,11.55,9.84,16.97,24.76,16.97h13.25v-22.7h-8.43ZM765.14,129.92c0,21.4-14.95,34.69-39.01,34.69-15.99,0-26.31-7.64-26.31-19.47,0-6.68,2.21-11.53,6.75-14.81,4.51-3.26,11.35-4.92,20.33-4.92h38.24v4.51ZM473.24,85.39v98.37h25.05v-98.01c0-5.9,4.81-10.71,10.73-10.71h34.03v-24.58h-34.88c-19.26,0-34.93,15.67-34.93,34.93Z"/>
</svg>