<svg xmlns="http://www.w3.org/2000/svg" xmlns:xlink="http://www.w3.org/1999/xlink" width="500" zoomAndPan="magnify" viewBox="-5 128 340 80" height="500" preserveAspectRatio="xMidYMid meet" version="1.2"><defs/><g id="3a57f31a06"><g style="fill:#3d3d3d;fill-opacity:1;"><g transform="translate(57.894141, 201.523508)"><path style="stroke:none" d="M 1.46875 -33.578125 C 2.320312 -33.546875 3.457031 -33.515625 4.875 -33.484375 C 6.300781 -33.453125 7.726562 -33.4375 9.15625 -33.4375 C 10.695312 -33.4375 12.1875 -33.453125 13.625 -33.484375 C 15.070312 -33.515625 16.09375 -33.53125 16.6875 -33.53125 C 19.789062 -33.53125 22.34375 -33.210938 24.34375 -32.578125 C 26.351562 -31.941406 27.863281 -31.015625 28.875 -29.796875 C 29.882812 -28.585938 30.390625 -27.082031 30.390625 -25.28125 C 30.390625 -24.132812 30.160156 -23.015625 29.703125 -21.921875 C 29.242188 -20.835938 28.46875 -19.835938 27.375 -18.921875 C 26.289062 -18.003906 24.789062 -17.273438 22.875 -16.734375 C 20.96875 -16.203125 18.5625 -15.9375 15.65625 -15.9375 L 11.09375 -15.9375 L 11.09375 -16.875 L 15.171875 -16.875 C 16.910156 -16.875 18.226562 -17.226562 19.125 -17.9375 C 20.03125 -18.65625 20.648438 -19.609375 20.984375 -20.796875 C 21.316406 -21.984375 21.484375 -23.300781 21.484375 -24.75 C 21.484375 -27.25 21.085938 -29.1875 20.296875 -30.5625 C 19.503906 -31.9375 18.160156 -32.625 16.265625 -32.625 C 15.097656 -32.625 14.347656 -32.351562 14.015625 -31.8125 C 13.679688 -31.28125 13.515625 -30.191406 13.515625 -28.546875 L 13.515625 -5.03125 C 13.515625 -3.882812 13.597656 -3.023438 13.765625 -2.453125 C 13.941406 -1.890625 14.273438 -1.515625 14.765625 -1.328125 C 15.253906 -1.140625 15.992188 -1.015625 16.984375 -0.953125 L 16.984375 0 C 16.097656 -0.0625 14.96875 -0.0976562 13.59375 -0.109375 C 12.21875 -0.128906 10.832031 -0.140625 9.4375 -0.140625 C 7.820312 -0.140625 6.300781 -0.128906 4.875 -0.109375 C 3.457031 -0.0976562 2.320312 -0.0625 1.46875 0 L 1.46875 -0.953125 C 2.445312 -1.015625 3.179688 -1.140625 3.671875 -1.328125 C 4.160156 -1.515625 4.492188 -1.890625 4.671875 -2.453125 C 4.847656 -3.023438 4.9375 -3.882812 4.9375 -5.03125 L 4.9375 -28.546875 C 4.9375 -29.710938 4.847656 -30.570312 4.671875 -31.125 C 4.492188 -31.6875 4.160156 -32.066406 3.671875 -32.265625 C 3.179688 -32.472656 2.445312 -32.59375 1.46875 -32.625 Z M 10.90625 -16.734375 C 12.132812 -16.703125 13.253906 -16.640625 14.265625 -16.546875 C 15.285156 -16.453125 16.195312 -16.363281 17 -16.28125 C 17.800781 -16.207031 18.503906 -16.15625 19.109375 -16.125 C 22.242188 -15.9375 24.578125 -15.34375 26.109375 -14.34375 C 27.640625 -13.34375 28.609375 -11.863281 29.015625 -9.90625 L 30.015625 -4.984375 C 30.296875 -3.773438 30.59375 -2.925781 30.90625 -2.4375 C 31.226562 -1.945312 31.675781 -1.71875 32.25 -1.75 C 32.59375 -1.75 32.890625 -1.820312 33.140625 -1.96875 C 33.398438 -2.113281 33.65625 -2.328125 33.90625 -2.609375 L 34.578125 -1.984375 C 33.660156 -1.003906 32.660156 -0.320312 31.578125 0.0625 C 30.503906 0.457031 29.257812 0.65625 27.84375 0.65625 C 25.96875 0.65625 24.4375 0.296875 23.25 -0.421875 C 22.070312 -1.148438 21.328125 -2.492188 21.015625 -4.453125 L 20.203125 -9.203125 C 20.015625 -10.492188 19.769531 -11.644531 19.46875 -12.65625 C 19.164062 -13.664062 18.757812 -14.460938 18.25 -15.046875 C 17.75 -15.640625 17.039062 -15.9375 16.125 -15.9375 L 11 -15.9375 Z M 10.90625 -16.734375 "/></g></g><g style="fill:#3d3d3d;fill-opacity:1;"><g transform="translate(91.368508, 201.523508)"><path style="stroke:none" d="M 7.4375 -36.9375 C 8.925781 -36.9375 10.085938 -36.601562 10.921875 -35.9375 C 11.765625 -35.28125 12.1875 -34.316406 12.1875 -33.046875 C 12.1875 -31.785156 11.765625 -30.820312 10.921875 -30.15625 C 10.085938 -29.5 8.925781 -29.171875 7.4375 -29.171875 C 5.957031 -29.171875 4.796875 -29.5 3.953125 -30.15625 C 3.117188 -30.820312 2.703125 -31.785156 2.703125 -33.046875 C 2.703125 -34.316406 3.117188 -35.28125 3.953125 -35.9375 C 4.796875 -36.601562 5.957031 -36.9375 7.4375 -36.9375 Z M 11.625 -25.09375 L 11.625 -4.40625 C 11.625 -3.082031 11.835938 -2.179688 12.265625 -1.703125 C 12.691406 -1.234375 13.425781 -1 14.46875 -1 L 14.46875 0 C 13.832031 -0.03125 12.894531 -0.0664062 11.65625 -0.109375 C 10.425781 -0.160156 9.179688 -0.1875 7.921875 -0.1875 C 6.648438 -0.1875 5.359375 -0.160156 4.046875 -0.109375 C 2.742188 -0.0664062 1.757812 -0.03125 1.09375 0 L 1.09375 -1 C 2.132812 -1 2.867188 -1.234375 3.296875 -1.703125 C 3.722656 -2.179688 3.9375 -3.082031 3.9375 -4.40625 L 3.9375 -19.390625 C 3.9375 -20.816406 3.726562 -21.867188 3.3125 -22.546875 C 2.90625 -23.222656 2.164062 -23.5625 1.09375 -23.5625 L 1.09375 -24.5625 C 2.101562 -24.46875 3.082031 -24.421875 4.03125 -24.421875 C 5.457031 -24.421875 6.804688 -24.472656 8.078125 -24.578125 C 9.359375 -24.691406 10.539062 -24.863281 11.625 -25.09375 Z M 11.625 -25.09375 "/></g></g><g style="fill:#3d3d3d;fill-opacity:1;"><g transform="translate(106.683265, 201.523508)"><path style="stroke:none" d="M 10.390625 8.921875 C 8.328125 8.921875 6.519531 8.753906 4.96875 8.421875 C 3.425781 8.085938 2.226562 7.59375 1.375 6.9375 C 0.519531 6.289062 0.09375 5.507812 0.09375 4.59375 C 0.09375 3.644531 0.535156 2.785156 1.421875 2.015625 C 2.304688 1.242188 3.664062 0.632812 5.5 0.1875 L 5.921875 0.953125 C 5.390625 1.484375 5.007812 2.007812 4.78125 2.53125 C 4.5625 3.050781 4.453125 3.566406 4.453125 4.078125 C 4.453125 5.367188 5.035156 6.363281 6.203125 7.0625 C 7.378906 7.757812 8.992188 8.109375 11.046875 8.109375 C 12.472656 8.109375 13.707031 7.910156 14.75 7.515625 C 15.789062 7.117188 16.59375 6.554688 17.15625 5.828125 C 17.726562 5.109375 18.015625 4.253906 18.015625 3.265625 C 18.015625 2.347656 17.675781 1.570312 17 0.9375 C 16.320312 0.3125 14.957031 0 12.90625 0 L 10.140625 0 C 8.785156 0 7.617188 -0.171875 6.640625 -0.515625 C 5.660156 -0.867188 4.910156 -1.359375 4.390625 -1.984375 C 3.867188 -2.617188 3.609375 -3.410156 3.609375 -4.359375 C 3.609375 -5.785156 4.160156 -6.992188 5.265625 -7.984375 C 6.367188 -8.984375 7.898438 -9.910156 9.859375 -10.765625 L 10.296875 -10.390625 C 9.816406 -10.097656 9.363281 -9.765625 8.9375 -9.390625 C 8.507812 -9.015625 8.296875 -8.507812 8.296875 -7.875 C 8.296875 -6.863281 8.894531 -6.359375 10.09375 -6.359375 L 14.984375 -6.359375 C 16.878906 -6.359375 18.550781 -6.144531 20 -5.71875 C 21.457031 -5.289062 22.601562 -4.59375 23.4375 -3.625 C 24.28125 -2.664062 24.703125 -1.410156 24.703125 0.140625 C 24.703125 1.722656 24.195312 3.175781 23.1875 4.5 C 22.175781 5.832031 20.617188 6.898438 18.515625 7.703125 C 16.410156 8.515625 13.703125 8.921875 10.390625 8.921875 Z M 11 -10.09375 C 9.101562 -10.09375 7.421875 -10.363281 5.953125 -10.90625 C 4.484375 -11.445312 3.320312 -12.273438 2.46875 -13.390625 C 1.613281 -14.515625 1.1875 -15.945312 1.1875 -17.6875 C 1.1875 -19.425781 1.613281 -20.847656 2.46875 -21.953125 C 3.320312 -23.054688 4.484375 -23.878906 5.953125 -24.421875 C 7.421875 -24.960938 9.101562 -25.234375 11 -25.234375 C 12.863281 -25.234375 14.535156 -24.960938 16.015625 -24.421875 C 17.503906 -23.878906 18.675781 -23.054688 19.53125 -21.953125 C 20.382812 -20.847656 20.8125 -19.425781 20.8125 -17.6875 C 20.8125 -15.945312 20.382812 -14.515625 19.53125 -13.390625 C 18.675781 -12.273438 17.503906 -11.445312 16.015625 -10.90625 C 14.535156 -10.363281 12.863281 -10.09375 11 -10.09375 Z M 11 -10.953125 C 11.695312 -10.953125 12.257812 -11.441406 12.6875 -12.421875 C 13.113281 -13.398438 13.328125 -15.15625 13.328125 -17.6875 C 13.328125 -20.21875 13.113281 -21.960938 12.6875 -22.921875 C 12.257812 -23.890625 11.695312 -24.375 11 -24.375 C 10.269531 -24.375 9.695312 -23.890625 9.28125 -22.921875 C 8.875 -21.960938 8.671875 -20.21875 8.671875 -17.6875 C 8.671875 -15.15625 8.875 -13.398438 9.28125 -12.421875 C 9.695312 -11.441406 10.269531 -10.953125 11 -10.953125 Z M 18.546875 -21.109375 L 17.546875 -21.4375 C 18.054688 -22.726562 18.835938 -23.773438 19.890625 -24.578125 C 20.953125 -25.390625 22.113281 -25.796875 23.375 -25.796875 C 24.414062 -25.796875 25.195312 -25.507812 25.71875 -24.9375 C 26.25 -24.375 26.515625 -23.632812 26.515625 -22.71875 C 26.515625 -21.800781 26.265625 -21.097656 25.765625 -20.609375 C 25.273438 -20.117188 24.703125 -19.875 24.046875 -19.875 C 23.472656 -19.875 22.945312 -20.070312 22.46875 -20.46875 C 22 -20.863281 21.734375 -21.460938 21.671875 -22.265625 C 21.609375 -23.066406 21.894531 -24.085938 22.53125 -25.328125 L 22.8125 -25.03125 C 21.644531 -24.625 20.75 -24.117188 20.125 -23.515625 C 19.507812 -22.921875 18.984375 -22.117188 18.546875 -21.109375 Z M 18.546875 -21.109375 "/></g></g><g style="fill:#3d3d3d;fill-opacity:1;"><g transform="translate(132.47653, 201.523508)"><path style="stroke:none" d="M 13.515625 -25.234375 C 15.890625 -25.234375 17.96875 -24.8125 19.75 -23.96875 C 21.539062 -23.132812 22.929688 -21.769531 23.921875 -19.875 C 24.921875 -17.976562 25.421875 -15.445312 25.421875 -12.28125 C 25.421875 -9.125 24.921875 -6.59375 23.921875 -4.6875 C 22.929688 -2.789062 21.539062 -1.425781 19.75 -0.59375 C 17.96875 0.238281 15.890625 0.65625 13.515625 0.65625 C 11.171875 0.65625 9.101562 0.238281 7.3125 -0.59375 C 5.53125 -1.425781 4.132812 -2.789062 3.125 -4.6875 C 2.113281 -6.59375 1.609375 -9.125 1.609375 -12.28125 C 1.609375 -15.445312 2.113281 -17.976562 3.125 -19.875 C 4.132812 -21.769531 5.53125 -23.132812 7.3125 -23.96875 C 9.101562 -24.8125 11.171875 -25.234375 13.515625 -25.234375 Z M 13.515625 -24.28125 C 12.410156 -24.28125 11.484375 -23.335938 10.734375 -21.453125 C 9.992188 -19.578125 9.625 -16.519531 9.625 -12.28125 C 9.625 -8.039062 9.992188 -4.976562 10.734375 -3.09375 C 11.484375 -1.21875 12.410156 -0.28125 13.515625 -0.28125 C 14.648438 -0.28125 15.582031 -1.21875 16.3125 -3.09375 C 17.039062 -4.976562 17.40625 -8.039062 17.40625 -12.28125 C 17.40625 -16.519531 17.039062 -19.578125 16.3125 -21.453125 C 15.582031 -23.335938 14.648438 -24.28125 13.515625 -24.28125 Z M 13.515625 -24.28125 "/></g></g><g style="fill:#3d3d3d;fill-opacity:1;"><g transform="translate(159.502575, 201.523508)"><path style="stroke:none" d="M 17.875 -25.234375 C 18.945312 -25.234375 19.800781 -25.003906 20.4375 -24.546875 C 21.070312 -24.085938 21.53125 -23.5 21.8125 -22.78125 C 22.09375 -22.070312 22.234375 -21.367188 22.234375 -20.671875 C 22.234375 -19.378906 21.863281 -18.335938 21.125 -17.546875 C 20.382812 -16.753906 19.410156 -16.359375 18.203125 -16.359375 C 16.941406 -16.359375 15.976562 -16.648438 15.3125 -17.234375 C 14.65625 -17.816406 14.328125 -18.597656 14.328125 -19.578125 C 14.328125 -20.566406 14.539062 -21.375 14.96875 -22 C 15.394531 -22.632812 15.921875 -23.171875 16.546875 -23.609375 C 16.078125 -23.679688 15.617188 -23.617188 15.171875 -23.421875 C 14.671875 -23.296875 14.195312 -23.054688 13.75 -22.703125 C 13.3125 -22.359375 12.929688 -21.945312 12.609375 -21.46875 C 12.296875 -21 12.050781 -20.488281 11.875 -19.9375 C 11.707031 -19.382812 11.625 -18.820312 11.625 -18.25 L 11.625 -4.890625 C 11.625 -3.367188 11.960938 -2.335938 12.640625 -1.796875 C 13.316406 -1.265625 14.398438 -1 15.890625 -1 L 15.890625 0 C 15.160156 -0.03125 14.082031 -0.0664062 12.65625 -0.109375 C 11.238281 -0.160156 9.769531 -0.1875 8.25 -0.1875 C 6.894531 -0.1875 5.53125 -0.160156 4.15625 -0.109375 C 2.78125 -0.0664062 1.757812 -0.03125 1.09375 0 L 1.09375 -1 C 2.132812 -1 2.867188 -1.234375 3.296875 -1.703125 C 3.722656 -2.179688 3.9375 -3.082031 3.9375 -4.40625 L 3.9375 -19.390625 C 3.9375 -20.816406 3.726562 -21.867188 3.3125 -22.546875 C 2.90625 -23.222656 2.164062 -23.5625 1.09375 -23.5625 L 1.09375 -24.5625 C 2.101562 -24.46875 3.082031 -24.421875 4.03125 -24.421875 C 5.457031 -24.421875 6.804688 -24.472656 8.078125 -24.578125 C 9.359375 -24.691406 10.539062 -24.863281 11.625 -25.09375 L 11.625 -21.203125 C 12 -22.023438 12.492188 -22.734375 13.109375 -23.328125 C 13.722656 -23.929688 14.429688 -24.398438 15.234375 -24.734375 C 16.046875 -25.066406 16.925781 -25.234375 17.875 -25.234375 Z M 17.875 -25.234375 "/></g></g><g style="fill:#3d3d3d;fill-opacity:1;"><g transform="translate(181.97687, 201.523508)"><path style="stroke:none" d="M 7.546875 0.328125 C 6.085938 0.328125 4.882812 0.0507812 3.9375 -0.5 C 2.988281 -1.050781 2.289062 -1.785156 1.84375 -2.703125 C 1.40625 -3.617188 1.1875 -4.597656 1.1875 -5.640625 C 1.1875 -6.972656 1.492188 -8.066406 2.109375 -8.921875 C 2.722656 -9.773438 3.519531 -10.460938 4.5 -10.984375 C 5.476562 -11.503906 6.503906 -11.9375 7.578125 -12.28125 C 8.660156 -12.625 9.691406 -12.960938 10.671875 -13.296875 C 11.648438 -13.628906 12.4375 -14.023438 13.03125 -14.484375 C 13.632812 -14.941406 13.9375 -15.535156 13.9375 -16.265625 L 13.9375 -20.203125 C 13.9375 -20.898438 13.832031 -21.554688 13.625 -22.171875 C 13.425781 -22.785156 13.066406 -23.289062 12.546875 -23.6875 C 12.023438 -24.082031 11.304688 -24.28125 10.390625 -24.28125 C 9.816406 -24.28125 9.257812 -24.203125 8.71875 -24.046875 C 8.1875 -23.890625 7.710938 -23.632812 7.296875 -23.28125 C 8.316406 -22.9375 9.070312 -22.414062 9.5625 -21.71875 C 10.050781 -21.019531 10.296875 -20.242188 10.296875 -19.390625 C 10.296875 -18.222656 9.890625 -17.300781 9.078125 -16.625 C 8.273438 -15.945312 7.320312 -15.609375 6.21875 -15.609375 C 5.007812 -15.609375 4.082031 -15.984375 3.4375 -16.734375 C 2.789062 -17.492188 2.46875 -18.410156 2.46875 -19.484375 C 2.46875 -20.429688 2.703125 -21.226562 3.171875 -21.875 C 3.648438 -22.53125 4.347656 -23.125 5.265625 -23.65625 C 6.179688 -24.195312 7.285156 -24.59375 8.578125 -24.84375 C 9.878906 -25.101562 11.253906 -25.234375 12.703125 -25.234375 C 14.191406 -25.234375 15.5625 -25.082031 16.8125 -24.78125 C 18.0625 -24.476562 19.128906 -23.882812 20.015625 -23 C 20.710938 -22.269531 21.15625 -21.382812 21.34375 -20.34375 C 21.53125 -19.300781 21.625 -17.972656 21.625 -16.359375 L 21.625 -3.5625 C 21.625 -2.769531 21.691406 -2.222656 21.828125 -1.921875 C 21.972656 -1.617188 22.207031 -1.46875 22.53125 -1.46875 C 22.8125 -1.46875 23.078125 -1.546875 23.328125 -1.703125 C 23.585938 -1.859375 23.84375 -2.035156 24.09375 -2.234375 L 24.609375 -1.421875 C 23.910156 -0.847656 23.085938 -0.410156 22.140625 -0.109375 C 21.191406 0.179688 20.164062 0.328125 19.0625 0.328125 C 17.800781 0.328125 16.8125 0.164062 16.09375 -0.15625 C 15.382812 -0.488281 14.878906 -0.941406 14.578125 -1.515625 C 14.273438 -2.085938 14.109375 -2.722656 14.078125 -3.421875 C 13.390625 -2.273438 12.519531 -1.363281 11.46875 -0.6875 C 10.425781 -0.0078125 9.117188 0.328125 7.546875 0.328125 Z M 11.46875 -3.078125 C 11.976562 -3.078125 12.429688 -3.179688 12.828125 -3.390625 C 13.222656 -3.597656 13.59375 -3.953125 13.9375 -4.453125 L 13.9375 -14.328125 C 13.6875 -13.878906 13.347656 -13.457031 12.921875 -13.0625 C 12.492188 -12.664062 12.039062 -12.269531 11.5625 -11.875 C 11.09375 -11.476562 10.644531 -11.039062 10.21875 -10.5625 C 9.789062 -10.09375 9.441406 -9.535156 9.171875 -8.890625 C 8.898438 -8.242188 8.765625 -7.460938 8.765625 -6.546875 C 8.765625 -5.304688 9.019531 -4.414062 9.53125 -3.875 C 10.039062 -3.34375 10.6875 -3.078125 11.46875 -3.078125 Z M 11.46875 -3.078125 "/></g></g><g style="fill:#3d3d3d;fill-opacity:1;"><g transform="translate(206.72704, 201.523508)"><path style="stroke:none" d=""/></g></g><g style="fill:#3d3d3d;fill-opacity:1;"><g transform="translate(217.252972, 201.523508)"><path style="stroke:none" d="M 11.421875 -37.078125 L 11.421875 -4.40625 C 11.421875 -3.082031 11.632812 -2.179688 12.0625 -1.703125 C 12.488281 -1.234375 13.226562 -1 14.28125 -1 L 14.28125 0 C 13.675781 -0.03125 12.753906 -0.0664062 11.515625 -0.109375 C 10.285156 -0.160156 9.023438 -0.1875 7.734375 -0.1875 C 6.460938 -0.1875 5.171875 -0.160156 3.859375 -0.109375 C 2.546875 -0.0664062 1.5625 -0.03125 0.90625 0 L 0.90625 -1 C 1.945312 -1 2.679688 -1.234375 3.109375 -1.703125 C 3.535156 -2.179688 3.75 -3.082031 3.75 -4.40625 L 3.75 -31.4375 C 3.75 -32.832031 3.550781 -33.867188 3.15625 -34.546875 C 2.757812 -35.222656 2.007812 -35.5625 0.90625 -35.5625 L 0.90625 -36.5625 C 1.914062 -36.46875 2.894531 -36.421875 3.84375 -36.421875 C 5.289062 -36.421875 6.644531 -36.472656 7.90625 -36.578125 C 9.175781 -36.691406 10.347656 -36.859375 11.421875 -37.078125 Z M 11.421875 -37.078125 "/></g></g><g style="fill:#3d3d3d;fill-opacity:1;"><g transform="translate(232.425491, 201.523508)"><path style="stroke:none" d="M 7.546875 0.328125 C 6.085938 0.328125 4.882812 0.0507812 3.9375 -0.5 C 2.988281 -1.050781 2.289062 -1.785156 1.84375 -2.703125 C 1.40625 -3.617188 1.1875 -4.597656 1.1875 -5.640625 C 1.1875 -6.972656 1.492188 -8.066406 2.109375 -8.921875 C 2.722656 -9.773438 3.519531 -10.460938 4.5 -10.984375 C 5.476562 -11.503906 6.503906 -11.9375 7.578125 -12.28125 C 8.660156 -12.625 9.691406 -12.960938 10.671875 -13.296875 C 11.648438 -13.628906 12.4375 -14.023438 13.03125 -14.484375 C 13.632812 -14.941406 13.9375 -15.535156 13.9375 -16.265625 L 13.9375 -20.203125 C 13.9375 -20.898438 13.832031 -21.554688 13.625 -22.171875 C 13.425781 -22.785156 13.066406 -23.289062 12.546875 -23.6875 C 12.023438 -24.082031 11.304688 -24.28125 10.390625 -24.28125 C 9.816406 -24.28125 9.257812 -24.203125 8.71875 -24.046875 C 8.1875 -23.890625 7.710938 -23.632812 7.296875 -23.28125 C 8.316406 -22.9375 9.070312 -22.414062 9.5625 -21.71875 C 10.050781 -21.019531 10.296875 -20.242188 10.296875 -19.390625 C 10.296875 -18.222656 9.890625 -17.300781 9.078125 -16.625 C 8.273438 -15.945312 7.320312 -15.609375 6.21875 -15.609375 C 5.007812 -15.609375 4.082031 -15.984375 3.4375 -16.734375 C 2.789062 -17.492188 2.46875 -18.410156 2.46875 -19.484375 C 2.46875 -20.429688 2.703125 -21.226562 3.171875 -21.875 C 3.648438 -22.53125 4.347656 -23.125 5.265625 -23.65625 C 6.179688 -24.195312 7.285156 -24.59375 8.578125 -24.84375 C 9.878906 -25.101562 11.253906 -25.234375 12.703125 -25.234375 C 14.191406 -25.234375 15.5625 -25.082031 16.8125 -24.78125 C 18.0625 -24.476562 19.128906 -23.882812 20.015625 -23 C 20.710938 -22.269531 21.15625 -21.382812 21.34375 -20.34375 C 21.53125 -19.300781 21.625 -17.972656 21.625 -16.359375 L 21.625 -3.5625 C 21.625 -2.769531 21.691406 -2.222656 21.828125 -1.921875 C 21.972656 -1.617188 22.207031 -1.46875 22.53125 -1.46875 C 22.8125 -1.46875 23.078125 -1.546875 23.328125 -1.703125 C 23.585938 -1.859375 23.84375 -2.035156 24.09375 -2.234375 L 24.609375 -1.421875 C 23.910156 -0.847656 23.085938 -0.410156 22.140625 -0.109375 C 21.191406 0.179688 20.164062 0.328125 19.0625 0.328125 C 17.800781 0.328125 16.8125 0.164062 16.09375 -0.15625 C 15.382812 -0.488281 14.878906 -0.941406 14.578125 -1.515625 C 14.273438 -2.085938 14.109375 -2.722656 14.078125 -3.421875 C 13.390625 -2.273438 12.519531 -1.363281 11.46875 -0.6875 C 10.425781 -0.0078125 9.117188 0.328125 7.546875 0.328125 Z M 11.46875 -3.078125 C 11.976562 -3.078125 12.429688 -3.179688 12.828125 -3.390625 C 13.222656 -3.597656 13.59375 -3.953125 13.9375 -4.453125 L 13.9375 -14.328125 C 13.6875 -13.878906 13.347656 -13.457031 12.921875 -13.0625 C 12.492188 -12.664062 12.039062 -12.269531 11.5625 -11.875 C 11.09375 -11.476562 10.644531 -11.039062 10.21875 -10.5625 C 9.789062 -10.09375 9.441406 -9.535156 9.171875 -8.890625 C 8.898438 -8.242188 8.765625 -7.460938 8.765625 -6.546875 C 8.765625 -5.304688 9.019531 -4.414062 9.53125 -3.875 C 10.039062 -3.34375 10.6875 -3.078125 11.46875 -3.078125 Z M 11.46875 -3.078125 "/></g></g><g style="fill:#3d3d3d;fill-opacity:1;"><g transform="translate(257.270486, 201.523508)"><path style="stroke:none" d="M 18.0625 -25.234375 C 20.46875 -25.234375 22.46875 -24.242188 24.0625 -22.265625 C 25.664062 -20.285156 26.46875 -17.242188 26.46875 -13.140625 C 26.46875 -9.722656 25.96875 -6.992188 24.96875 -4.953125 C 23.96875 -2.910156 22.640625 -1.460938 20.984375 -0.609375 C 19.328125 0.234375 17.5 0.65625 15.5 0.65625 C 14.332031 0.65625 13.25 0.515625 12.25 0.234375 C 11.257812 -0.046875 10.351562 -0.566406 9.53125 -1.328125 L 10.140625 -1.796875 C 10.648438 -1.296875 11.21875 -0.925781 11.84375 -0.6875 C 12.476562 -0.445312 13.097656 -0.328125 13.703125 -0.328125 C 15.316406 -0.328125 16.507812 -1.316406 17.28125 -3.296875 C 18.0625 -5.273438 18.453125 -8.269531 18.453125 -12.28125 C 18.453125 -15.03125 18.300781 -17.179688 18 -18.734375 C 17.695312 -20.285156 17.269531 -21.382812 16.71875 -22.03125 C 16.164062 -22.675781 15.507812 -23 14.75 -23 C 13.769531 -23 12.875 -22.609375 12.0625 -21.828125 C 11.257812 -21.054688 10.828125 -20.007812 10.765625 -18.6875 L 10.671875 -20.671875 C 11.304688 -22.191406 12.269531 -23.332031 13.5625 -24.09375 C 14.851562 -24.851562 16.351562 -25.234375 18.0625 -25.234375 Z M 10.8125 -37.078125 L 10.8125 -0.421875 C 9.894531 -0.710938 8.960938 -0.832031 8.015625 -0.78125 C 7.066406 -0.738281 6.195312 -0.582031 5.40625 -0.3125 C 4.613281 -0.0390625 3.984375 0.316406 3.515625 0.765625 L 2.796875 0.328125 C 2.953125 -0.109375 3.046875 -0.546875 3.078125 -0.984375 C 3.109375 -1.429688 3.125 -1.878906 3.125 -2.328125 L 3.125 -31.390625 C 3.125 -32.816406 2.925781 -33.867188 2.53125 -34.546875 C 2.132812 -35.222656 1.382812 -35.5625 0.28125 -35.5625 L 0.28125 -36.5625 C 1.289062 -36.46875 2.269531 -36.421875 3.21875 -36.421875 C 4.675781 -36.421875 6.035156 -36.472656 7.296875 -36.578125 C 8.566406 -36.691406 9.738281 -36.859375 10.8125 -37.078125 Z M 10.8125 -37.078125 "/></g></g><g style="fill:#3d3d3d;fill-opacity:1;"><g transform="translate(285.387062, 201.523508)"><path style="stroke:none" d="M 10.71875 -25.234375 C 12.101562 -25.234375 13.300781 -25.070312 14.3125 -24.75 C 15.332031 -24.4375 16.078125 -24.140625 16.546875 -23.859375 C 17.648438 -23.160156 18.316406 -23.601562 18.546875 -25.1875 L 19.53125 -25.1875 C 19.46875 -24.269531 19.421875 -23.171875 19.390625 -21.890625 C 19.359375 -20.609375 19.34375 -18.890625 19.34375 -16.734375 L 18.359375 -16.734375 C 18.222656 -17.910156 17.941406 -19.066406 17.515625 -20.203125 C 17.085938 -21.335938 16.460938 -22.273438 15.640625 -23.015625 C 14.828125 -23.765625 13.753906 -24.140625 12.421875 -24.140625 C 11.566406 -24.140625 10.847656 -23.882812 10.265625 -23.375 C 9.679688 -22.875 9.390625 -22.179688 9.390625 -21.296875 C 9.390625 -20.347656 9.671875 -19.507812 10.234375 -18.78125 C 10.804688 -18.050781 11.539062 -17.351562 12.4375 -16.6875 C 13.34375 -16.03125 14.253906 -15.320312 15.171875 -14.5625 C 16.179688 -13.800781 17.085938 -13.03125 17.890625 -12.25 C 18.703125 -11.476562 19.351562 -10.640625 19.84375 -9.734375 C 20.332031 -8.835938 20.578125 -7.757812 20.578125 -6.5 C 20.578125 -5.070312 20.148438 -3.820312 19.296875 -2.75 C 18.441406 -1.675781 17.316406 -0.835938 15.921875 -0.234375 C 14.535156 0.359375 12.988281 0.65625 11.28125 0.65625 C 10.238281 0.65625 9.328125 0.550781 8.546875 0.34375 C 7.773438 0.144531 7.140625 -0.109375 6.640625 -0.421875 C 6.160156 -0.648438 5.738281 -0.84375 5.375 -1 C 5.019531 -1.15625 4.664062 -1.265625 4.3125 -1.328125 C 4 -1.359375 3.726562 -1.210938 3.5 -0.890625 C 3.28125 -0.578125 3.109375 -0.171875 2.984375 0.328125 L 1.984375 0.328125 C 2.054688 -0.679688 2.109375 -1.910156 2.140625 -3.359375 C 2.171875 -4.816406 2.1875 -6.75 2.1875 -9.15625 L 3.171875 -9.15625 C 3.367188 -7.445312 3.726562 -5.941406 4.25 -4.640625 C 4.769531 -3.347656 5.472656 -2.328125 6.359375 -1.578125 C 7.242188 -0.835938 8.285156 -0.46875 9.484375 -0.46875 C 10.023438 -0.46875 10.523438 -0.570312 10.984375 -0.78125 C 11.441406 -0.988281 11.816406 -1.3125 12.109375 -1.75 C 12.410156 -2.195312 12.5625 -2.769531 12.5625 -3.46875 C 12.5625 -4.851562 12.117188 -6.007812 11.234375 -6.9375 C 10.347656 -7.875 9.257812 -8.894531 7.96875 -10 C 6.957031 -10.851562 6.015625 -11.691406 5.140625 -12.515625 C 4.273438 -13.335938 3.566406 -14.238281 3.015625 -15.21875 C 2.460938 -16.195312 2.1875 -17.304688 2.1875 -18.546875 C 2.1875 -19.960938 2.585938 -21.164062 3.390625 -22.15625 C 4.191406 -23.15625 5.238281 -23.914062 6.53125 -24.4375 C 7.832031 -24.96875 9.226562 -25.234375 10.71875 -25.234375 Z M 10.71875 -25.234375 "/></g></g><g style="fill:#fc4473;fill-opacity:1;"><g transform="translate(167.609377, 214.934883)"><path style="stroke:none" d="M 5.84375 -8.796875 C 5.9375 -8.796875 6.019531 -8.765625 6.09375 -8.703125 C 6.15625 -8.628906 6.1875 -8.546875 6.1875 -8.453125 L 6.1875 -0.34375 C 6.1875 -0.25 6.15625 -0.171875 6.09375 -0.109375 C 6.019531 -0.0351562 5.9375 0 5.84375 0 L 4.921875 0 C 4.773438 0 4.671875 -0.0664062 4.609375 -0.203125 L 2.203125 -5.34375 C 2.179688 -5.40625 2.132812 -5.425781 2.0625 -5.40625 C 1.988281 -5.394531 1.953125 -5.351562 1.953125 -5.28125 L 1.953125 -0.34375 C 1.953125 -0.25 1.921875 -0.171875 1.859375 -0.109375 C 1.785156 -0.0351562 1.695312 0 1.59375 0 L 0.953125 0 C 0.847656 0 0.765625 -0.0351562 0.703125 -0.109375 C 0.628906 -0.171875 0.59375 -0.25 0.59375 -0.34375 L 0.59375 -8.453125 C 0.59375 -8.546875 0.628906 -8.628906 0.703125 -8.703125 C 0.765625 -8.765625 0.847656 -8.796875 0.953125 -8.796875 L 1.875 -8.796875 C 2.019531 -8.796875 2.125 -8.726562 2.1875 -8.59375 L 4.578125 -3.453125 C 4.609375 -3.390625 4.660156 -3.367188 4.734375 -3.390625 C 4.804688 -3.398438 4.84375 -3.441406 4.84375 -3.515625 L 4.84375 -8.453125 C 4.84375 -8.546875 4.875 -8.628906 4.9375 -8.703125 C 5.007812 -8.765625 5.097656 -8.796875 5.203125 -8.796875 Z M 5.84375 -8.796875 "/></g></g><g style="fill:#fc4473;fill-opacity:1;"><g transform="translate(174.401388, 214.934883)"><path style="stroke:none" d="M 4.921875 -7.78125 C 4.921875 -7.6875 4.890625 -7.609375 4.828125 -7.546875 C 4.753906 -7.472656 4.671875 -7.4375 4.578125 -7.4375 L 2.296875 -7.4375 C 2.203125 -7.4375 2.125 -7.40625 2.0625 -7.34375 C 1.988281 -7.269531 1.953125 -7.1875 1.953125 -7.09375 L 1.953125 -6.375 C 1.953125 -6.28125 1.988281 -6.195312 2.0625 -6.125 C 2.125 -6.0625 2.203125 -6.03125 2.296875 -6.03125 L 3.796875 -6.03125 C 3.898438 -6.03125 3.988281 -5.992188 4.0625 -5.921875 C 4.125 -5.847656 4.15625 -5.765625 4.15625 -5.671875 L 4.15625 -5.03125 C 4.15625 -4.9375 4.125 -4.851562 4.0625 -4.78125 C 3.988281 -4.707031 3.898438 -4.671875 3.796875 -4.671875 L 2.296875 -4.671875 C 2.203125 -4.671875 2.125 -4.640625 2.0625 -4.578125 C 1.988281 -4.503906 1.953125 -4.414062 1.953125 -4.3125 L 1.953125 -1.703125 C 1.953125 -1.609375 1.988281 -1.53125 2.0625 -1.46875 C 2.125 -1.394531 2.203125 -1.359375 2.296875 -1.359375 L 4.578125 -1.359375 C 4.671875 -1.359375 4.753906 -1.328125 4.828125 -1.265625 C 4.890625 -1.191406 4.921875 -1.109375 4.921875 -1.015625 L 4.921875 -0.34375 C 4.921875 -0.25 4.890625 -0.171875 4.828125 -0.109375 C 4.753906 -0.0351562 4.671875 0 4.578125 0 L 0.953125 0 C 0.847656 0 0.765625 -0.0351562 0.703125 -0.109375 C 0.628906 -0.171875 0.59375 -0.25 0.59375 -0.34375 L 0.59375 -8.453125 C 0.59375 -8.546875 0.628906 -8.628906 0.703125 -8.703125 C 0.765625 -8.765625 0.847656 -8.796875 0.953125 -8.796875 L 4.578125 -8.796875 C 4.671875 -8.796875 4.753906 -8.765625 4.828125 -8.703125 C 4.890625 -8.628906 4.921875 -8.546875 4.921875 -8.453125 Z M 4.921875 -7.78125 "/></g></g><g style="fill:#fc4473;fill-opacity:1;"><g transform="translate(179.9214, 214.934883)"><path style="stroke:none" d="M 7.578125 -0.28125 C 7.554688 -0.195312 7.515625 -0.128906 7.453125 -0.078125 C 7.378906 -0.0234375 7.300781 0 7.21875 0 L 6.421875 0 C 6.328125 0 6.25 -0.0234375 6.1875 -0.078125 C 6.113281 -0.128906 6.070312 -0.195312 6.0625 -0.28125 L 4.9375 -5.546875 L 3.828125 -0.28125 C 3.804688 -0.195312 3.765625 -0.128906 3.703125 -0.078125 C 3.640625 -0.0234375 3.566406 0 3.484375 0 L 2.671875 0 C 2.585938 0 2.515625 -0.0234375 2.453125 -0.078125 C 2.390625 -0.128906 2.347656 -0.195312 2.328125 -0.28125 L 0.609375 -8.359375 C 0.585938 -8.472656 0.613281 -8.570312 0.6875 -8.65625 C 0.75 -8.75 0.835938 -8.796875 0.953125 -8.796875 L 1.609375 -8.796875 C 1.691406 -8.796875 1.769531 -8.769531 1.84375 -8.71875 C 1.90625 -8.664062 1.941406 -8.597656 1.953125 -8.515625 L 2.96875 -3.71875 C 2.976562 -3.664062 3.015625 -3.640625 3.078125 -3.640625 C 3.128906 -3.640625 3.164062 -3.664062 3.1875 -3.71875 L 4.1875 -8.515625 C 4.207031 -8.597656 4.25 -8.664062 4.3125 -8.71875 C 4.382812 -8.769531 4.460938 -8.796875 4.546875 -8.796875 L 5.34375 -8.796875 C 5.425781 -8.796875 5.503906 -8.769531 5.578125 -8.71875 C 5.640625 -8.664062 5.679688 -8.597656 5.703125 -8.515625 L 5.796875 -8.078125 C 5.804688 -7.984375 5.828125 -7.882812 5.859375 -7.78125 C 5.878906 -7.675781 5.90625 -7.550781 5.9375 -7.40625 C 5.96875 -7.25 6.015625 -7.03125 6.078125 -6.75 C 6.140625 -6.445312 6.222656 -6.054688 6.328125 -5.578125 C 6.429688 -5.097656 6.5625 -4.476562 6.71875 -3.71875 C 6.71875 -3.664062 6.75 -3.640625 6.8125 -3.640625 C 6.863281 -3.640625 6.894531 -3.664062 6.90625 -3.71875 L 7.9375 -8.515625 C 7.945312 -8.597656 7.984375 -8.664062 8.046875 -8.71875 C 8.109375 -8.769531 8.1875 -8.796875 8.28125 -8.796875 L 8.921875 -8.796875 C 9.046875 -8.796875 9.144531 -8.75 9.21875 -8.65625 C 9.28125 -8.570312 9.300781 -8.472656 9.28125 -8.359375 Z M 7.578125 -0.28125 "/></g></g><g style="fill:#fc4473;fill-opacity:1;"><g transform="translate(189.461423, 214.934883)"><path style="stroke:none" d="M 2.75 -8.796875 C 3.445312 -8.796875 3.96875 -8.609375 4.3125 -8.234375 C 4.664062 -7.859375 4.84375 -7.328125 4.84375 -6.640625 C 4.84375 -6.554688 4.820312 -6.488281 4.78125 -6.4375 C 4.71875 -6.382812 4.648438 -6.359375 4.578125 -6.359375 L 3.765625 -6.359375 C 3.679688 -6.359375 3.617188 -6.382812 3.578125 -6.4375 C 3.515625 -6.488281 3.484375 -6.554688 3.484375 -6.640625 L 3.484375 -6.71875 C 3.484375 -7.019531 3.425781 -7.238281 3.3125 -7.375 C 3.1875 -7.507812 3.007812 -7.578125 2.78125 -7.578125 C 2.550781 -7.578125 2.375 -7.507812 2.25 -7.375 C 2.125 -7.238281 2.0625 -7.019531 2.0625 -6.71875 C 2.0625 -6.5625 2.082031 -6.414062 2.125 -6.28125 C 2.164062 -6.132812 2.234375 -5.988281 2.328125 -5.84375 C 2.421875 -5.695312 2.550781 -5.546875 2.71875 -5.390625 C 2.863281 -5.222656 3.050781 -5.039062 3.28125 -4.84375 C 3.582031 -4.59375 3.835938 -4.363281 4.046875 -4.15625 C 4.242188 -3.925781 4.40625 -3.707031 4.53125 -3.5 C 4.644531 -3.289062 4.726562 -3.078125 4.78125 -2.859375 C 4.832031 -2.640625 4.859375 -2.40625 4.859375 -2.15625 C 4.859375 -1.457031 4.679688 -0.925781 4.328125 -0.5625 C 3.972656 -0.1875 3.441406 0 2.734375 0 C 2.035156 0 1.503906 -0.1875 1.140625 -0.5625 C 0.773438 -0.925781 0.59375 -1.457031 0.59375 -2.15625 L 0.59375 -2.421875 C 0.59375 -2.492188 0.625 -2.554688 0.6875 -2.609375 C 0.726562 -2.660156 0.785156 -2.6875 0.859375 -2.6875 L 1.6875 -2.6875 C 1.75 -2.6875 1.8125 -2.660156 1.875 -2.609375 C 1.925781 -2.554688 1.953125 -2.492188 1.953125 -2.421875 L 1.953125 -2.078125 C 1.953125 -1.773438 2.015625 -1.554688 2.140625 -1.421875 C 2.273438 -1.296875 2.457031 -1.234375 2.6875 -1.234375 C 2.914062 -1.234375 3.097656 -1.296875 3.234375 -1.421875 C 3.367188 -1.554688 3.4375 -1.773438 3.4375 -2.078125 C 3.4375 -2.222656 3.414062 -2.367188 3.375 -2.515625 C 3.332031 -2.660156 3.265625 -2.804688 3.171875 -2.953125 C 3.078125 -3.097656 2.953125 -3.253906 2.796875 -3.421875 C 2.640625 -3.578125 2.441406 -3.753906 2.203125 -3.953125 C 1.910156 -4.191406 1.664062 -4.421875 1.46875 -4.640625 C 1.257812 -4.859375 1.097656 -5.078125 0.984375 -5.296875 C 0.859375 -5.503906 0.769531 -5.71875 0.71875 -5.9375 C 0.664062 -6.15625 0.640625 -6.390625 0.640625 -6.640625 C 0.640625 -7.328125 0.8125 -7.859375 1.15625 -8.234375 C 1.507812 -8.609375 2.039062 -8.796875 2.75 -8.796875 Z M 2.75 -8.796875 "/></g></g><g style="fill:#fc4473;fill-opacity:1;"><g transform="translate(194.921433, 214.934883)"><path style="stroke:none" d="M 0.59375 -1.03125 C 0.59375 -1.113281 0.628906 -1.191406 0.703125 -1.265625 C 0.765625 -1.328125 0.835938 -1.359375 0.921875 -1.359375 L 1.625 -1.359375 C 1.71875 -1.359375 1.796875 -1.328125 1.859375 -1.265625 C 1.921875 -1.191406 1.953125 -1.113281 1.953125 -1.03125 L 1.953125 1.03125 C 1.953125 1.113281 1.921875 1.191406 1.859375 1.265625 C 1.796875 1.328125 1.71875 1.359375 1.625 1.359375 L 0.921875 1.359375 C 0.835938 1.359375 0.765625 1.328125 0.703125 1.265625 C 0.628906 1.191406 0.59375 1.113281 0.59375 1.03125 Z M 0.59375 -1.03125 "/></g></g><g style="fill:#fc4473;fill-opacity:1;"><g transform="translate(197.477437, 214.934883)"><path style="stroke:none" d=""/></g></g><g style="fill:#fc4473;fill-opacity:1;"><g transform="translate(201.077439, 214.934883)"><path style="stroke:none" d="M 5.5625 -7.78125 C 5.5625 -7.6875 5.523438 -7.609375 5.453125 -7.546875 C 5.390625 -7.472656 5.304688 -7.4375 5.203125 -7.4375 L 4.109375 -7.4375 C 4.003906 -7.4375 3.921875 -7.40625 3.859375 -7.34375 C 3.785156 -7.269531 3.75 -7.1875 3.75 -7.09375 L 3.75 -0.34375 C 3.75 -0.25 3.71875 -0.171875 3.65625 -0.109375 C 3.582031 -0.0351562 3.492188 0 3.390625 0 L 2.75 0 C 2.65625 0 2.578125 -0.0351562 2.515625 -0.109375 C 2.441406 -0.171875 2.40625 -0.25 2.40625 -0.34375 L 2.40625 -7.09375 C 2.40625 -7.1875 2.367188 -7.269531 2.296875 -7.34375 C 2.234375 -7.40625 2.148438 -7.4375 2.046875 -7.4375 L 0.953125 -7.4375 C 0.847656 -7.4375 0.765625 -7.472656 0.703125 -7.546875 C 0.628906 -7.609375 0.59375 -7.6875 0.59375 -7.78125 L 0.59375 -8.453125 C 0.59375 -8.546875 0.628906 -8.628906 0.703125 -8.703125 C 0.765625 -8.765625 0.847656 -8.796875 0.953125 -8.796875 L 5.203125 -8.796875 C 5.304688 -8.796875 5.390625 -8.765625 5.453125 -8.703125 C 5.523438 -8.628906 5.5625 -8.546875 5.5625 -8.453125 Z M 5.5625 -7.78125 "/></g></g><g style="fill:#fc4473;fill-opacity:1;"><g transform="translate(207.233456, 214.934883)"><path style="stroke:none" d="M 2.921875 -8.796875 C 3.367188 -8.796875 3.757812 -8.695312 4.09375 -8.5 C 4.414062 -8.289062 4.679688 -8.019531 4.890625 -7.6875 C 5.097656 -7.363281 5.25 -7 5.34375 -6.59375 C 5.425781 -6.175781 5.453125 -5.765625 5.421875 -5.359375 C 5.378906 -4.941406 5.285156 -4.539062 5.140625 -4.15625 C 4.972656 -3.78125 4.753906 -3.46875 4.484375 -3.21875 C 4.367188 -3.113281 4.335938 -2.988281 4.390625 -2.84375 L 5.25 -0.46875 C 5.289062 -0.351562 5.28125 -0.25 5.21875 -0.15625 C 5.144531 -0.0507812 5.046875 0 4.921875 0 L 4.234375 0 C 4.066406 0 3.957031 -0.078125 3.90625 -0.234375 L 3.125 -2.390625 C 3.0625 -2.535156 2.945312 -2.609375 2.78125 -2.609375 L 2.296875 -2.609375 C 2.203125 -2.609375 2.125 -2.578125 2.0625 -2.515625 C 1.988281 -2.441406 1.953125 -2.359375 1.953125 -2.265625 L 1.953125 -0.34375 C 1.953125 -0.25 1.921875 -0.171875 1.859375 -0.109375 C 1.785156 -0.0351562 1.703125 0 1.609375 0 L 0.953125 0 C 0.847656 0 0.765625 -0.0351562 0.703125 -0.109375 C 0.628906 -0.171875 0.59375 -0.25 0.59375 -0.34375 L 0.59375 -8.453125 C 0.59375 -8.546875 0.628906 -8.628906 0.703125 -8.703125 C 0.765625 -8.765625 0.847656 -8.796875 0.953125 -8.796875 Z M 1.953125 -4.3125 C 1.953125 -4.21875 1.988281 -4.140625 2.0625 -4.078125 C 2.125 -4.003906 2.203125 -3.96875 2.296875 -3.96875 L 2.953125 -3.96875 C 3.203125 -3.96875 3.410156 -4.054688 3.578125 -4.234375 C 3.742188 -4.398438 3.867188 -4.613281 3.953125 -4.875 C 4.046875 -5.125 4.09375 -5.40625 4.09375 -5.71875 C 4.09375 -6.007812 4.050781 -6.285156 3.96875 -6.546875 C 3.882812 -6.796875 3.757812 -7.007812 3.59375 -7.1875 C 3.425781 -7.351562 3.210938 -7.4375 2.953125 -7.4375 L 2.296875 -7.4375 C 2.203125 -7.4375 2.125 -7.40625 2.0625 -7.34375 C 1.988281 -7.269531 1.953125 -7.1875 1.953125 -7.09375 Z M 1.953125 -4.3125 "/></g></g><g style="fill:#fc4473;fill-opacity:1;"><g transform="translate(213.26947, 214.934883)"><path style="stroke:none" d="M 5.359375 -8.796875 C 5.460938 -8.796875 5.546875 -8.765625 5.609375 -8.703125 C 5.679688 -8.628906 5.71875 -8.546875 5.71875 -8.453125 L 5.71875 -2.5625 C 5.71875 -2.207031 5.648438 -1.875 5.515625 -1.5625 C 5.378906 -1.25 5.195312 -0.976562 4.96875 -0.75 C 4.738281 -0.507812 4.46875 -0.328125 4.15625 -0.203125 C 3.84375 -0.0664062 3.507812 0 3.15625 0 C 2.800781 0 2.472656 -0.0664062 2.171875 -0.203125 C 1.859375 -0.335938 1.585938 -0.519531 1.359375 -0.75 C 1.128906 -0.988281 0.941406 -1.265625 0.796875 -1.578125 C 0.660156 -1.878906 0.59375 -2.207031 0.59375 -2.5625 L 0.59375 -8.453125 C 0.59375 -8.546875 0.628906 -8.628906 0.703125 -8.703125 C 0.765625 -8.765625 0.847656 -8.796875 0.953125 -8.796875 L 1.59375 -8.796875 C 1.695312 -8.796875 1.785156 -8.765625 1.859375 -8.703125 C 1.921875 -8.628906 1.953125 -8.546875 1.953125 -8.453125 L 1.953125 -2.59375 C 1.953125 -2.425781 1.984375 -2.265625 2.046875 -2.109375 C 2.109375 -1.960938 2.195312 -1.832031 2.3125 -1.71875 C 2.425781 -1.601562 2.5625 -1.515625 2.71875 -1.453125 C 2.863281 -1.390625 3.019531 -1.359375 3.1875 -1.359375 C 3.519531 -1.359375 3.796875 -1.46875 4.015625 -1.6875 C 4.242188 -1.914062 4.359375 -2.191406 4.359375 -2.515625 L 4.359375 -8.453125 C 4.359375 -8.546875 4.394531 -8.628906 4.46875 -8.703125 C 4.539062 -8.765625 4.625 -8.796875 4.71875 -8.796875 Z M 5.359375 -8.796875 "/></g></g><g style="fill:#fc4473;fill-opacity:1;"><g transform="translate(219.581481, 214.934883)"><path style="stroke:none" d="M 5.5625 -7.78125 C 5.5625 -7.6875 5.523438 -7.609375 5.453125 -7.546875 C 5.390625 -7.472656 5.304688 -7.4375 5.203125 -7.4375 L 4.109375 -7.4375 C 4.003906 -7.4375 3.921875 -7.40625 3.859375 -7.34375 C 3.785156 -7.269531 3.75 -7.1875 3.75 -7.09375 L 3.75 -0.34375 C 3.75 -0.25 3.71875 -0.171875 3.65625 -0.109375 C 3.582031 -0.0351562 3.492188 0 3.390625 0 L 2.75 0 C 2.65625 0 2.578125 -0.0351562 2.515625 -0.109375 C 2.441406 -0.171875 2.40625 -0.25 2.40625 -0.34375 L 2.40625 -7.09375 C 2.40625 -7.1875 2.367188 -7.269531 2.296875 -7.34375 C 2.234375 -7.40625 2.148438 -7.4375 2.046875 -7.4375 L 0.953125 -7.4375 C 0.847656 -7.4375 0.765625 -7.472656 0.703125 -7.546875 C 0.628906 -7.609375 0.59375 -7.6875 0.59375 -7.78125 L 0.59375 -8.453125 C 0.59375 -8.546875 0.628906 -8.628906 0.703125 -8.703125 C 0.765625 -8.765625 0.847656 -8.796875 0.953125 -8.796875 L 5.203125 -8.796875 C 5.304688 -8.796875 5.390625 -8.765625 5.453125 -8.703125 C 5.523438 -8.628906 5.5625 -8.546875 5.5625 -8.453125 Z M 5.5625 -7.78125 "/></g></g><g style="fill:#fc4473;fill-opacity:1;"><g transform="translate(225.737498, 214.934883)"><path style="stroke:none" d="M 4.359375 -8.453125 C 4.359375 -8.546875 4.394531 -8.628906 4.46875 -8.703125 C 4.53125 -8.765625 4.613281 -8.796875 4.71875 -8.796875 L 5.359375 -8.796875 C 5.460938 -8.796875 5.546875 -8.765625 5.609375 -8.703125 C 5.679688 -8.628906 5.71875 -8.546875 5.71875 -8.453125 L 5.71875 -0.34375 C 5.71875 -0.25 5.679688 -0.171875 5.609375 -0.109375 C 5.546875 -0.0351562 5.460938 0 5.359375 0 L 4.71875 0 C 4.613281 0 4.53125 -0.0351562 4.46875 -0.109375 C 4.394531 -0.171875 4.359375 -0.25 4.359375 -0.34375 L 4.359375 -3.375 C 4.359375 -3.46875 4.328125 -3.550781 4.265625 -3.625 C 4.191406 -3.6875 4.109375 -3.71875 4.015625 -3.71875 L 2.296875 -3.71875 C 2.203125 -3.71875 2.125 -3.6875 2.0625 -3.625 C 1.988281 -3.550781 1.953125 -3.46875 1.953125 -3.375 L 1.953125 -0.34375 C 1.953125 -0.25 1.921875 -0.171875 1.859375 -0.109375 C 1.785156 -0.0351562 1.703125 0 1.609375 0 L 0.953125 0 C 0.847656 0 0.765625 -0.0351562 0.703125 -0.109375 C 0.628906 -0.171875 0.59375 -0.25 0.59375 -0.34375 L 0.59375 -8.453125 C 0.59375 -8.546875 0.628906 -8.628906 0.703125 -8.703125 C 0.765625 -8.765625 0.847656 -8.796875 0.953125 -8.796875 L 1.609375 -8.796875 C 1.703125 -8.796875 1.785156 -8.765625 1.859375 -8.703125 C 1.921875 -8.628906 1.953125 -8.546875 1.953125 -8.453125 L 1.953125 -5.421875 C 1.953125 -5.328125 1.988281 -5.25 2.0625 -5.1875 C 2.125 -5.113281 2.203125 -5.078125 2.296875 -5.078125 L 4.015625 -5.078125 C 4.109375 -5.078125 4.191406 -5.113281 4.265625 -5.1875 C 4.328125 -5.25 4.359375 -5.328125 4.359375 -5.421875 Z M 4.359375 -8.453125 "/></g></g><g style="fill:#fc4473;fill-opacity:1;"><g transform="translate(232.049509, 214.934883)"><path style="stroke:none" d="M 0.59375 -1.03125 C 0.59375 -1.113281 0.628906 -1.191406 0.703125 -1.265625 C 0.765625 -1.328125 0.835938 -1.359375 0.921875 -1.359375 L 1.625 -1.359375 C 1.71875 -1.359375 1.796875 -1.328125 1.859375 -1.265625 C 1.921875 -1.191406 1.953125 -1.113281 1.953125 -1.03125 L 1.953125 1.03125 C 1.953125 1.113281 1.921875 1.191406 1.859375 1.265625 C 1.796875 1.328125 1.71875 1.359375 1.625 1.359375 L 0.921875 1.359375 C 0.835938 1.359375 0.765625 1.328125 0.703125 1.265625 C 0.628906 1.191406 0.59375 1.113281 0.59375 1.03125 Z M 0.59375 -1.03125 "/></g></g><g style="fill:#fc4473;fill-opacity:1;"><g transform="translate(234.605513, 214.934883)"><path style="stroke:none" d=""/></g></g><g style="fill:#fc4473;fill-opacity:1;"><g transform="translate(238.205515, 214.934883)"><path style="stroke:none" d="M 5.5625 -7.78125 C 5.5625 -7.6875 5.523438 -7.609375 5.453125 -7.546875 C 5.390625 -7.472656 5.304688 -7.4375 5.203125 -7.4375 L 4.109375 -7.4375 C 4.003906 -7.4375 3.921875 -7.40625 3.859375 -7.34375 C 3.785156 -7.269531 3.75 -7.1875 3.75 -7.09375 L 3.75 -0.34375 C 3.75 -0.25 3.71875 -0.171875 3.65625 -0.109375 C 3.582031 -0.0351562 3.492188 0 3.390625 0 L 2.75 0 C 2.65625 0 2.578125 -0.0351562 2.515625 -0.109375 C 2.441406 -0.171875 2.40625 -0.25 2.40625 -0.34375 L 2.40625 -7.09375 C 2.40625 -7.1875 2.367188 -7.269531 2.296875 -7.34375 C 2.234375 -7.40625 2.148438 -7.4375 2.046875 -7.4375 L 0.953125 -7.4375 C 0.847656 -7.4375 0.765625 -7.472656 0.703125 -7.546875 C 0.628906 -7.609375 0.59375 -7.6875 0.59375 -7.78125 L 0.59375 -8.453125 C 0.59375 -8.546875 0.628906 -8.628906 0.703125 -8.703125 C 0.765625 -8.765625 0.847656 -8.796875 0.953125 -8.796875 L 5.203125 -8.796875 C 5.304688 -8.796875 5.390625 -8.765625 5.453125 -8.703125 C 5.523438 -8.628906 5.5625 -8.546875 5.5625 -8.453125 Z M 5.5625 -7.78125 "/></g></g><g style="fill:#fc4473;fill-opacity:1;"><g transform="translate(244.361532, 214.934883)"><path style="stroke:none" d="M 4.921875 -7.78125 C 4.921875 -7.6875 4.890625 -7.609375 4.828125 -7.546875 C 4.753906 -7.472656 4.671875 -7.4375 4.578125 -7.4375 L 2.296875 -7.4375 C 2.203125 -7.4375 2.125 -7.40625 2.0625 -7.34375 C 1.988281 -7.269531 1.953125 -7.1875 1.953125 -7.09375 L 1.953125 -6.375 C 1.953125 -6.28125 1.988281 -6.195312 2.0625 -6.125 C 2.125 -6.0625 2.203125 -6.03125 2.296875 -6.03125 L 3.796875 -6.03125 C 3.898438 -6.03125 3.988281 -5.992188 4.0625 -5.921875 C 4.125 -5.847656 4.15625 -5.765625 4.15625 -5.671875 L 4.15625 -5.03125 C 4.15625 -4.9375 4.125 -4.851562 4.0625 -4.78125 C 3.988281 -4.707031 3.898438 -4.671875 3.796875 -4.671875 L 2.296875 -4.671875 C 2.203125 -4.671875 2.125 -4.640625 2.0625 -4.578125 C 1.988281 -4.503906 1.953125 -4.414062 1.953125 -4.3125 L 1.953125 -1.703125 C 1.953125 -1.609375 1.988281 -1.53125 2.0625 -1.46875 C 2.125 -1.394531 2.203125 -1.359375 2.296875 -1.359375 L 4.578125 -1.359375 C 4.671875 -1.359375 4.753906 -1.328125 4.828125 -1.265625 C 4.890625 -1.191406 4.921875 -1.109375 4.921875 -1.015625 L 4.921875 -0.34375 C 4.921875 -0.25 4.890625 -0.171875 4.828125 -0.109375 C 4.753906 -0.0351562 4.671875 0 4.578125 0 L 0.953125 0 C 0.847656 0 0.765625 -0.0351562 0.703125 -0.109375 C 0.628906 -0.171875 0.59375 -0.25 0.59375 -0.34375 L 0.59375 -8.453125 C 0.59375 -8.546875 0.628906 -8.628906 0.703125 -8.703125 C 0.765625 -8.765625 0.847656 -8.796875 0.953125 -8.796875 L 4.578125 -8.796875 C 4.671875 -8.796875 4.753906 -8.765625 4.828125 -8.703125 C 4.890625 -8.628906 4.921875 -8.546875 4.921875 -8.453125 Z M 4.921875 -7.78125 "/></g></g><g style="fill:#fc4473;fill-opacity:1;"><g transform="translate(249.881543, 214.934883)"><path style="stroke:none" d="M 7.125 -1.625 C 7.175781 -1.601562 7.207031 -1.566406 7.21875 -1.515625 C 7.226562 -1.453125 7.21875 -1.40625 7.1875 -1.375 L 7.1875 -1.359375 C 6.851562 -0.910156 6.445312 -0.570312 5.96875 -0.34375 C 5.476562 -0.113281 4.929688 0 4.328125 0 C 3.117188 0 2.164062 -0.453125 1.46875 -1.359375 C 0.882812 -2.148438 0.59375 -3.160156 0.59375 -4.390625 C 0.59375 -5.003906 0.671875 -5.566406 0.828125 -6.078125 C 0.972656 -6.597656 1.1875 -7.046875 1.46875 -7.421875 C 1.8125 -7.878906 2.226562 -8.222656 2.71875 -8.453125 C 3.195312 -8.679688 3.734375 -8.796875 4.328125 -8.796875 C 4.929688 -8.796875 5.476562 -8.679688 5.96875 -8.453125 C 6.445312 -8.222656 6.851562 -7.878906 7.1875 -7.421875 C 7.21875 -7.390625 7.226562 -7.34375 7.21875 -7.28125 C 7.207031 -7.226562 7.175781 -7.1875 7.125 -7.15625 L 6.28125 -6.65625 C 6.175781 -6.613281 6.09375 -6.628906 6.03125 -6.703125 C 5.894531 -6.867188 5.753906 -7 5.609375 -7.09375 C 5.441406 -7.1875 5.285156 -7.257812 5.140625 -7.3125 C 4.984375 -7.363281 4.835938 -7.398438 4.703125 -7.421875 C 4.554688 -7.429688 4.429688 -7.4375 4.328125 -7.4375 C 4.148438 -7.4375 3.925781 -7.410156 3.65625 -7.359375 C 3.382812 -7.296875 3.125 -7.160156 2.875 -6.953125 C 2.625 -6.742188 2.410156 -6.4375 2.234375 -6.03125 C 2.046875 -5.625 1.953125 -5.078125 1.953125 -4.390625 C 1.953125 -3.703125 2.046875 -3.160156 2.234375 -2.765625 C 2.410156 -2.359375 2.625 -2.050781 2.875 -1.84375 C 3.125 -1.632812 3.382812 -1.503906 3.65625 -1.453125 C 3.925781 -1.390625 4.148438 -1.359375 4.328125 -1.359375 C 4.429688 -1.359375 4.554688 -1.363281 4.703125 -1.375 C 4.835938 -1.394531 4.984375 -1.429688 5.140625 -1.484375 C 5.285156 -1.535156 5.441406 -1.609375 5.609375 -1.703125 C 5.753906 -1.796875 5.894531 -1.925781 6.03125 -2.09375 C 6.09375 -2.164062 6.175781 -2.175781 6.28125 -2.125 Z M 7.125 -1.625 "/></g></g><g style="fill:#fc4473;fill-opacity:1;"><g transform="translate(257.705559, 214.934883)"><path style="stroke:none" d="M 4.359375 -8.453125 C 4.359375 -8.546875 4.394531 -8.628906 4.46875 -8.703125 C 4.53125 -8.765625 4.613281 -8.796875 4.71875 -8.796875 L 5.359375 -8.796875 C 5.460938 -8.796875 5.546875 -8.765625 5.609375 -8.703125 C 5.679688 -8.628906 5.71875 -8.546875 5.71875 -8.453125 L 5.71875 -0.34375 C 5.71875 -0.25 5.679688 -0.171875 5.609375 -0.109375 C 5.546875 -0.0351562 5.460938 0 5.359375 0 L 4.71875 0 C 4.613281 0 4.53125 -0.0351562 4.46875 -0.109375 C 4.394531 -0.171875 4.359375 -0.25 4.359375 -0.34375 L 4.359375 -3.375 C 4.359375 -3.46875 4.328125 -3.550781 4.265625 -3.625 C 4.191406 -3.6875 4.109375 -3.71875 4.015625 -3.71875 L 2.296875 -3.71875 C 2.203125 -3.71875 2.125 -3.6875 2.0625 -3.625 C 1.988281 -3.550781 1.953125 -3.46875 1.953125 -3.375 L 1.953125 -0.34375 C 1.953125 -0.25 1.921875 -0.171875 1.859375 -0.109375 C 1.785156 -0.0351562 1.703125 0 1.609375 0 L 0.953125 0 C 0.847656 0 0.765625 -0.0351562 0.703125 -0.109375 C 0.628906 -0.171875 0.59375 -0.25 0.59375 -0.34375 L 0.59375 -8.453125 C 0.59375 -8.546875 0.628906 -8.628906 0.703125 -8.703125 C 0.765625 -8.765625 0.847656 -8.796875 0.953125 -8.796875 L 1.609375 -8.796875 C 1.703125 -8.796875 1.785156 -8.765625 1.859375 -8.703125 C 1.921875 -8.628906 1.953125 -8.546875 1.953125 -8.453125 L 1.953125 -5.421875 C 1.953125 -5.328125 1.988281 -5.25 2.0625 -5.1875 C 2.125 -5.113281 2.203125 -5.078125 2.296875 -5.078125 L 4.015625 -5.078125 C 4.109375 -5.078125 4.191406 -5.113281 4.265625 -5.1875 C 4.328125 -5.25 4.359375 -5.328125 4.359375 -5.421875 Z M 4.359375 -8.453125 "/></g></g><g style="fill:#fc4473;fill-opacity:1;"><g transform="translate(264.017571, 214.934883)"><path style="stroke:none" d="M 5.84375 -8.796875 C 5.9375 -8.796875 6.019531 -8.765625 6.09375 -8.703125 C 6.15625 -8.628906 6.1875 -8.546875 6.1875 -8.453125 L 6.1875 -0.34375 C 6.1875 -0.25 6.15625 -0.171875 6.09375 -0.109375 C 6.019531 -0.0351562 5.9375 0 5.84375 0 L 4.921875 0 C 4.773438 0 4.671875 -0.0664062 4.609375 -0.203125 L 2.203125 -5.34375 C 2.179688 -5.40625 2.132812 -5.425781 2.0625 -5.40625 C 1.988281 -5.394531 1.953125 -5.351562 1.953125 -5.28125 L 1.953125 -0.34375 C 1.953125 -0.25 1.921875 -0.171875 1.859375 -0.109375 C 1.785156 -0.0351562 1.695312 0 1.59375 0 L 0.953125 0 C 0.847656 0 0.765625 -0.0351562 0.703125 -0.109375 C 0.628906 -0.171875 0.59375 -0.25 0.59375 -0.34375 L 0.59375 -8.453125 C 0.59375 -8.546875 0.628906 -8.628906 0.703125 -8.703125 C 0.765625 -8.765625 0.847656 -8.796875 0.953125 -8.796875 L 1.875 -8.796875 C 2.019531 -8.796875 2.125 -8.726562 2.1875 -8.59375 L 4.578125 -3.453125 C 4.609375 -3.390625 4.660156 -3.367188 4.734375 -3.390625 C 4.804688 -3.398438 4.84375 -3.441406 4.84375 -3.515625 L 4.84375 -8.453125 C 4.84375 -8.546875 4.875 -8.628906 4.9375 -8.703125 C 5.007812 -8.765625 5.097656 -8.796875 5.203125 -8.796875 Z M 5.84375 -8.796875 "/></g></g><g style="fill:#fc4473;fill-opacity:1;"><g transform="translate(270.809581, 214.934883)"><path style="stroke:none" d="M 3.9375 0 C 2.820312 0 1.960938 -0.460938 1.359375 -1.390625 C 0.847656 -2.171875 0.59375 -3.171875 0.59375 -4.390625 C 0.59375 -4.992188 0.660156 -5.550781 0.796875 -6.0625 C 0.921875 -6.5625 1.109375 -7.003906 1.359375 -7.390625 C 1.960938 -8.328125 2.820312 -8.796875 3.9375 -8.796875 C 5.050781 -8.796875 5.910156 -8.328125 6.515625 -7.390625 C 6.765625 -7.003906 6.953125 -6.5625 7.078125 -6.0625 C 7.203125 -5.550781 7.265625 -4.992188 7.265625 -4.390625 C 7.265625 -3.171875 7.015625 -2.171875 6.515625 -1.390625 C 5.910156 -0.460938 5.050781 0 3.9375 0 Z M 3.9375 -7.4375 C 3.632812 -7.4375 3.375 -7.378906 3.15625 -7.265625 C 2.9375 -7.148438 2.753906 -7 2.609375 -6.8125 C 2.460938 -6.625 2.34375 -6.414062 2.25 -6.1875 C 2.164062 -5.957031 2.101562 -5.734375 2.0625 -5.515625 C 2.007812 -5.273438 1.984375 -5.0625 1.984375 -4.875 C 1.960938 -4.675781 1.953125 -4.515625 1.953125 -4.390625 C 1.953125 -4.273438 1.960938 -4.117188 1.984375 -3.921875 C 1.984375 -3.722656 2.007812 -3.507812 2.0625 -3.28125 C 2.101562 -3.0625 2.164062 -2.835938 2.25 -2.609375 C 2.34375 -2.378906 2.460938 -2.171875 2.609375 -1.984375 C 2.753906 -1.796875 2.9375 -1.644531 3.15625 -1.53125 C 3.375 -1.414062 3.632812 -1.359375 3.9375 -1.359375 C 4.238281 -1.359375 4.5 -1.414062 4.71875 -1.53125 C 4.9375 -1.644531 5.117188 -1.796875 5.265625 -1.984375 C 5.410156 -2.171875 5.523438 -2.378906 5.609375 -2.609375 C 5.703125 -2.835938 5.769531 -3.0625 5.8125 -3.28125 C 5.851562 -3.507812 5.882812 -3.722656 5.90625 -3.921875 C 5.914062 -4.117188 5.921875 -4.273438 5.921875 -4.390625 C 5.921875 -4.515625 5.914062 -4.675781 5.90625 -4.875 C 5.882812 -5.0625 5.851562 -5.273438 5.8125 -5.515625 C 5.769531 -5.734375 5.703125 -5.957031 5.609375 -6.1875 C 5.523438 -6.414062 5.410156 -6.625 5.265625 -6.8125 C 5.117188 -7 4.9375 -7.148438 4.71875 -7.265625 C 4.5 -7.378906 4.238281 -7.4375 3.9375 -7.4375 Z M 3.9375 -7.4375 "/></g></g><g style="fill:#fc4473;fill-opacity:1;"><g transform="translate(278.681594, 214.934883)"><path style="stroke:none" d="M 4.265625 -1.359375 C 4.359375 -1.359375 4.441406 -1.328125 4.515625 -1.265625 C 4.578125 -1.191406 4.609375 -1.109375 4.609375 -1.015625 L 4.609375 -0.34375 C 4.609375 -0.25 4.578125 -0.171875 4.515625 -0.109375 C 4.441406 -0.0351562 4.359375 0 4.265625 0 L 0.953125 0 C 0.847656 0 0.765625 -0.0351562 0.703125 -0.109375 C 0.628906 -0.171875 0.59375 -0.25 0.59375 -0.34375 L 0.59375 -8.453125 C 0.59375 -8.546875 0.628906 -8.628906 0.703125 -8.703125 C 0.765625 -8.765625 0.847656 -8.796875 0.953125 -8.796875 L 1.609375 -8.796875 C 1.703125 -8.796875 1.785156 -8.765625 1.859375 -8.703125 C 1.921875 -8.628906 1.953125 -8.546875 1.953125 -8.453125 L 1.953125 -1.703125 C 1.953125 -1.609375 1.988281 -1.53125 2.0625 -1.46875 C 2.125 -1.394531 2.203125 -1.359375 2.296875 -1.359375 Z M 4.265625 -1.359375 "/></g></g><g style="fill:#fc4473;fill-opacity:1;"><g transform="translate(283.289603, 214.934883)"><path style="stroke:none" d="M 3.9375 0 C 2.820312 0 1.960938 -0.460938 1.359375 -1.390625 C 0.847656 -2.171875 0.59375 -3.171875 0.59375 -4.390625 C 0.59375 -4.992188 0.660156 -5.550781 0.796875 -6.0625 C 0.921875 -6.5625 1.109375 -7.003906 1.359375 -7.390625 C 1.960938 -8.328125 2.820312 -8.796875 3.9375 -8.796875 C 5.050781 -8.796875 5.910156 -8.328125 6.515625 -7.390625 C 6.765625 -7.003906 6.953125 -6.5625 7.078125 -6.0625 C 7.203125 -5.550781 7.265625 -4.992188 7.265625 -4.390625 C 7.265625 -3.171875 7.015625 -2.171875 6.515625 -1.390625 C 5.910156 -0.460938 5.050781 0 3.9375 0 Z M 3.9375 -7.4375 C 3.632812 -7.4375 3.375 -7.378906 3.15625 -7.265625 C 2.9375 -7.148438 2.753906 -7 2.609375 -6.8125 C 2.460938 -6.625 2.34375 -6.414062 2.25 -6.1875 C 2.164062 -5.957031 2.101562 -5.734375 2.0625 -5.515625 C 2.007812 -5.273438 1.984375 -5.0625 1.984375 -4.875 C 1.960938 -4.675781 1.953125 -4.515625 1.953125 -4.390625 C 1.953125 -4.273438 1.960938 -4.117188 1.984375 -3.921875 C 1.984375 -3.722656 2.007812 -3.507812 2.0625 -3.28125 C 2.101562 -3.0625 2.164062 -2.835938 2.25 -2.609375 C 2.34375 -2.378906 2.460938 -2.171875 2.609375 -1.984375 C 2.753906 -1.796875 2.9375 -1.644531 3.15625 -1.53125 C 3.375 -1.414062 3.632812 -1.359375 3.9375 -1.359375 C 4.238281 -1.359375 4.5 -1.414062 4.71875 -1.53125 C 4.9375 -1.644531 5.117188 -1.796875 5.265625 -1.984375 C 5.410156 -2.171875 5.523438 -2.378906 5.609375 -2.609375 C 5.703125 -2.835938 5.769531 -3.0625 5.8125 -3.28125 C 5.851562 -3.507812 5.882812 -3.722656 5.90625 -3.921875 C 5.914062 -4.117188 5.921875 -4.273438 5.921875 -4.390625 C 5.921875 -4.515625 5.914062 -4.675781 5.90625 -4.875 C 5.882812 -5.0625 5.851562 -5.273438 5.8125 -5.515625 C 5.769531 -5.734375 5.703125 -5.957031 5.609375 -6.1875 C 5.523438 -6.414062 5.410156 -6.625 5.265625 -6.8125 C 5.117188 -7 4.9375 -7.148438 4.71875 -7.265625 C 4.5 -7.378906 4.238281 -7.4375 3.9375 -7.4375 Z M 3.9375 -7.4375 "/></g></g><g style="fill:#fc4473;fill-opacity:1;"><g transform="translate(291.161616, 214.934883)"><path style="stroke:none" d="M 7.875 -4.578125 C 7.925781 -4.578125 7.972656 -4.5625 8.015625 -4.53125 C 8.046875 -4.488281 8.0625 -4.445312 8.0625 -4.40625 C 8.0625 -3.863281 8 -3.328125 7.875 -2.796875 C 7.738281 -2.265625 7.507812 -1.785156 7.1875 -1.359375 C 6.851562 -0.910156 6.445312 -0.570312 5.96875 -0.34375 C 5.476562 -0.113281 4.929688 0 4.328125 0 C 3.117188 0 2.164062 -0.453125 1.46875 -1.359375 C 0.882812 -2.148438 0.59375 -3.160156 0.59375 -4.390625 C 0.59375 -5.003906 0.671875 -5.566406 0.828125 -6.078125 C 0.972656 -6.597656 1.1875 -7.046875 1.46875 -7.421875 C 1.8125 -7.878906 2.226562 -8.222656 2.71875 -8.453125 C 3.195312 -8.679688 3.734375 -8.796875 4.328125 -8.796875 C 4.929688 -8.796875 5.476562 -8.679688 5.96875 -8.453125 C 6.445312 -8.222656 6.851562 -7.878906 7.1875 -7.421875 C 7.21875 -7.390625 7.226562 -7.347656 7.21875 -7.296875 C 7.207031 -7.242188 7.175781 -7.195312 7.125 -7.15625 L 6.265625 -6.671875 C 6.179688 -6.617188 6.101562 -6.628906 6.03125 -6.703125 C 5.894531 -6.867188 5.753906 -7 5.609375 -7.09375 C 5.441406 -7.1875 5.285156 -7.257812 5.140625 -7.3125 C 4.984375 -7.363281 4.835938 -7.398438 4.703125 -7.421875 C 4.554688 -7.429688 4.429688 -7.4375 4.328125 -7.4375 C 4.148438 -7.4375 3.925781 -7.410156 3.65625 -7.359375 C 3.382812 -7.296875 3.125 -7.160156 2.875 -6.953125 C 2.625 -6.742188 2.410156 -6.4375 2.234375 -6.03125 C 2.046875 -5.625 1.953125 -5.078125 1.953125 -4.390625 C 1.953125 -3.703125 2.046875 -3.160156 2.234375 -2.765625 C 2.410156 -2.359375 2.625 -2.050781 2.875 -1.84375 C 3.125 -1.632812 3.382812 -1.503906 3.65625 -1.453125 C 3.925781 -1.390625 4.148438 -1.359375 4.328125 -1.359375 C 4.472656 -1.359375 4.644531 -1.375 4.84375 -1.40625 C 5.039062 -1.4375 5.25 -1.507812 5.46875 -1.625 C 5.675781 -1.738281 5.878906 -1.90625 6.078125 -2.125 C 6.253906 -2.34375 6.398438 -2.628906 6.515625 -2.984375 C 6.535156 -3.046875 6.523438 -3.101562 6.484375 -3.15625 C 6.453125 -3.207031 6.40625 -3.234375 6.34375 -3.234375 L 4.890625 -3.234375 C 4.785156 -3.234375 4.703125 -3.269531 4.640625 -3.34375 C 4.566406 -3.40625 4.53125 -3.488281 4.53125 -3.59375 L 4.53125 -4.234375 C 4.53125 -4.328125 4.566406 -4.410156 4.640625 -4.484375 C 4.703125 -4.546875 4.785156 -4.578125 4.890625 -4.578125 Z M 7.875 -4.578125 "/></g></g><g style="fill:#fc4473;fill-opacity:1;"><g transform="translate(299.465631, 214.934883)"><path style="stroke:none" d="M 2.65625 -2.71875 L 0.640625 -8.328125 C 0.609375 -8.378906 0.597656 -8.4375 0.609375 -8.5 C 0.617188 -8.550781 0.640625 -8.597656 0.671875 -8.640625 C 0.753906 -8.742188 0.847656 -8.796875 0.953125 -8.796875 L 1.65625 -8.796875 C 1.8125 -8.796875 1.921875 -8.71875 1.984375 -8.5625 L 3.25 -5.09375 C 3.269531 -5.050781 3.300781 -5.03125 3.34375 -5.03125 C 3.394531 -5.03125 3.425781 -5.050781 3.4375 -5.09375 L 4.703125 -8.5625 C 4.753906 -8.71875 4.867188 -8.796875 5.046875 -8.796875 L 5.71875 -8.796875 C 5.851562 -8.796875 5.953125 -8.742188 6.015625 -8.640625 C 6.085938 -8.554688 6.101562 -8.453125 6.0625 -8.328125 L 4.015625 -2.71875 L 4.015625 -0.34375 C 4.015625 -0.25 3.984375 -0.171875 3.921875 -0.109375 C 3.847656 -0.0351562 3.765625 0 3.671875 0 L 3.03125 0 C 2.925781 0 2.835938 -0.0351562 2.765625 -0.109375 C 2.691406 -0.171875 2.65625 -0.25 2.65625 -0.34375 Z M 2.65625 -2.71875 "/></g></g></g></svg>